<svg width="264" height="49" viewBox="0 0 264 49" fill="none" xmlns="http://www.w3.org/2000/svg">
<g clip-path="url(#clip0_108_478)">
<rect width="264" height="49" rx="10" fill="white"/>
<path d="M108.529 -0.420898H4.88191C-1.16036 -0.420898 -6.05859 4.50906 -6.05859 10.5905V38.4086C-6.05859 44.4901 -1.16036 49.42 4.88191 49.42H108.529C114.571 49.42 119.469 44.4901 119.469 38.4086V10.5905C119.469 4.50906 114.571 -0.420898 108.529 -0.420898Z" fill="#554DF1" stroke="#554DF1"/>
<path d="M18.0401 17.8588V25.9887C18.0401 26.9948 17.7337 27.7899 17.1211 28.3741C16.5191 28.9583 15.7237 29.2504 14.7349 29.2504C13.746 29.2504 12.9452 28.9583 12.3326 28.3741C11.7306 27.7899 11.4297 26.9948 11.4297 25.9887H13.2838C13.2945 26.4863 13.4181 26.8812 13.6546 27.1733C13.9018 27.4654 14.2619 27.6114 14.7349 27.6114C15.2077 27.6114 15.5679 27.4654 15.8151 27.1733C16.0622 26.8704 16.1859 26.4755 16.1859 25.9887V17.8588H18.0401ZM29.0753 20.1956V29.1368H27.2373V28.082C26.9471 28.4498 26.5656 28.7419 26.0926 28.9583C25.6305 29.1638 25.136 29.2666 24.6093 29.2666C23.9106 29.2666 23.2818 29.1206 22.7229 28.8285C22.1748 28.5364 21.7394 28.1037 21.417 27.5303C21.1052 26.9569 20.9494 26.2646 20.9494 25.4532V20.1956H22.7713V25.1773C22.7713 25.9779 22.9702 26.5946 23.3679 27.0273C23.7655 27.4492 24.3084 27.6601 24.9963 27.6601C25.6841 27.6601 26.227 27.4492 26.6247 27.0273C27.0332 26.5946 27.2373 25.9779 27.2373 25.1773V20.1956H29.0753ZM33.3385 17.1286V29.1368H31.5005V17.1286H33.3385ZM43.7485 20.1956L38.299 33.3397H36.3965L38.2023 28.9908L34.7036 20.1956H36.7512L39.2503 27.011L41.846 20.1956H43.7485ZM50.0977 26.6216C51.1296 25.7236 51.941 24.9881 52.5323 24.4147C53.1341 23.8305 53.6339 23.2246 54.0317 22.5972C54.4293 21.9698 54.6282 21.3423 54.6282 20.7148C54.6282 20.0658 54.4723 19.5573 54.1607 19.1895C53.8596 18.8217 53.3814 18.6378 52.7257 18.6378C52.0915 18.6378 51.5971 18.8433 51.2424 19.2544C50.8984 19.6546 50.7157 20.1956 50.6943 20.8771H48.9207C48.953 19.6438 49.3184 18.7027 50.0171 18.0536C50.7265 17.3937 51.624 17.0637 52.7096 17.0637C53.8812 17.0637 54.7948 17.3883 55.4505 18.0373C56.1168 18.6864 56.4501 19.5519 56.4501 20.6337C56.4501 21.4126 56.2512 22.1645 55.8536 22.8893C55.4666 23.6033 54.9991 24.2469 54.4509 24.8203C53.9134 25.3828 53.2255 26.0374 52.3872 26.7838L51.6616 27.4329H56.7726V28.9745H48.9369V27.6277L50.0977 26.6216ZM58.3548 20.228C58.4193 19.2219 58.8005 18.4376 59.4995 17.8751C60.2089 17.3126 61.1118 17.0312 62.2082 17.0312C62.9602 17.0312 63.6109 17.1665 64.159 17.4369C64.7072 17.7073 65.1206 18.0752 65.4005 18.5404C65.6803 19.0055 65.8197 19.5303 65.8197 20.1144C65.8197 20.7852 65.6423 21.3585 65.2876 21.8345C64.9329 22.3106 64.508 22.6297 64.0139 22.7919V22.8568C64.6485 23.0516 65.1425 23.4086 65.4972 23.9278C65.8519 24.4363 66.0293 25.0908 66.0293 25.8913C66.0293 26.5297 65.8842 27.0976 65.594 27.5952C65.3038 28.0928 64.8742 28.4877 64.3041 28.7798C63.7341 29.0611 63.0523 29.2017 62.2565 29.2017C61.0957 29.2017 60.1387 28.9042 59.3867 28.3092C58.645 27.7034 58.2477 26.838 58.1936 25.7128H59.9671C60.0097 26.2862 60.2308 26.7568 60.6281 27.1246C61.0254 27.4816 61.5632 27.6601 62.2404 27.6601C62.8957 27.6601 63.4013 27.4816 63.756 27.1246C64.1107 26.7568 64.288 26.2862 64.288 25.7128C64.288 24.9556 64.0462 24.4201 63.5625 24.1063C63.0892 23.7818 62.359 23.6195 61.3698 23.6195H60.9506V22.0942H61.3859C62.2565 22.0834 62.9176 21.9373 63.369 21.656C63.8308 21.3747 64.0623 20.9312 64.0623 20.3254C64.0623 19.8061 63.8953 19.395 63.5625 19.0921C63.2297 18.7783 62.7563 18.6215 62.1437 18.6215C61.5414 18.6215 61.0738 18.7783 60.741 19.0921C60.4082 19.395 60.2089 19.7737 60.1444 20.228H58.3548Z" fill="white"/>
<path d="M105.86 17.6963L92.5117 31.3031" stroke="#E2E1F1" stroke-width="2" stroke-linecap="round" stroke-linejoin="round"/>
<path d="M92.5117 17.6963L105.86 31.3031" stroke="#E2E1F1" stroke-width="2" stroke-linecap="round" stroke-linejoin="round"/>
<path d="M252.486 -0.420898H148.839C142.797 -0.420898 137.898 4.50906 137.898 10.5905V38.4086C137.898 44.4901 142.797 49.42 148.839 49.42H252.486C258.528 49.42 263.426 44.4901 263.426 38.4086V10.5905C263.426 4.50906 258.528 -0.420898 252.486 -0.420898Z" fill="white" stroke="#E2E1F1"/>
<path d="M155.611 26.6213C156.642 25.7234 157.454 24.9878 158.045 24.4144C158.647 23.8303 159.147 23.2244 159.545 22.597C159.943 21.9696 160.141 21.342 160.141 20.7146C160.141 20.0655 159.986 19.557 159.674 19.1892C159.373 18.8215 158.895 18.6375 158.239 18.6375C157.605 18.6375 157.11 18.843 156.755 19.2542C156.412 19.6544 156.229 20.1953 156.207 20.8769H154.434C154.466 19.6436 154.832 18.7024 155.53 18.0533C156.239 17.3935 157.138 17.0635 158.222 17.0635C159.395 17.0635 160.308 17.388 160.963 18.0371C161.63 18.6862 161.963 19.5517 161.963 20.6335C161.963 21.4124 161.765 22.1643 161.366 22.8891C160.979 23.6031 160.512 24.2467 159.964 24.8201C159.427 25.3826 158.738 26.0372 157.9 26.7836L157.174 27.4327H162.285V28.9743H154.45V27.6274L155.611 26.6213ZM167.718 23.4732C167.718 22.3698 167.97 21.3799 168.475 20.5037C168.991 19.6274 169.685 18.9458 170.555 18.459C171.436 17.9614 172.399 17.7126 173.441 17.7126C174.634 17.7126 175.693 18.0101 176.617 18.6051C177.553 19.1892 178.23 20.0223 178.649 21.1041H176.44C176.15 20.5091 175.747 20.0655 175.231 19.7734C174.715 19.4813 174.118 19.3353 173.441 19.3353C172.7 19.3353 172.039 19.503 171.458 19.8383C170.878 20.1737 170.421 20.6552 170.088 21.2826C169.765 21.91 169.604 22.6402 169.604 23.4732C169.604 24.3063 169.765 25.0365 170.088 25.6639C170.421 26.2913 170.878 26.7782 171.458 27.1244C172.039 27.4597 172.7 27.6274 173.441 27.6274C174.118 27.6274 174.715 27.4814 175.231 27.1893C175.747 26.8972 176.15 26.4536 176.44 25.8587H178.649C178.23 26.9404 177.553 27.7735 176.617 28.3577C175.693 28.9418 174.634 29.2339 173.441 29.2339C172.388 29.2339 171.426 28.9905 170.555 28.5037C169.685 28.0061 168.991 27.3191 168.475 26.4428C167.97 25.5666 167.718 24.5767 167.718 23.4732ZM182.638 17.1284V29.1366H180.8V17.1284H182.638ZM184.439 24.6254C184.439 23.7274 184.621 22.9323 184.988 22.24C185.363 21.5477 185.869 21.0122 186.503 20.6335C187.148 20.244 187.857 20.0493 188.631 20.0493C189.329 20.0493 189.937 20.1899 190.453 20.4712C190.98 20.7416 191.399 21.0824 191.711 21.4935V20.1953H193.565V29.1366H191.711V27.8059C191.399 28.2278 190.974 28.5794 190.437 28.8607C189.899 29.142 189.287 29.2826 188.599 29.2826C187.836 29.2826 187.137 29.0879 186.503 28.6984C185.869 28.2982 185.363 27.7465 184.988 27.0433C184.621 26.3292 184.439 25.5233 184.439 24.6254ZM191.711 24.6578C191.711 24.0412 191.582 23.5057 191.324 23.0513C191.076 22.597 190.748 22.2508 190.34 22.0128C189.932 21.7748 189.49 21.6558 189.018 21.6558C188.545 21.6558 188.104 21.7748 187.696 22.0128C187.287 22.24 186.955 22.5807 186.697 23.0351C186.449 23.4787 186.326 24.0087 186.326 24.6254C186.326 25.242 186.449 25.783 186.697 26.2481C186.955 26.7133 187.287 27.0703 187.696 27.3191C188.115 27.5571 188.555 27.6761 189.018 27.6761C189.49 27.6761 189.932 27.5571 190.34 27.3191C190.748 27.0812 191.076 26.7349 191.324 26.2806C191.582 25.8154 191.711 25.2745 191.711 24.6578ZM199.203 29.2826C198.504 29.2826 197.875 29.1582 197.317 28.9094C196.769 28.6498 196.333 28.3035 196.011 27.8708C195.689 27.4273 195.516 26.9351 195.495 26.3942H197.398C197.43 26.7728 197.607 27.0919 197.93 27.3516C198.262 27.6004 198.676 27.7248 199.171 27.7248C199.687 27.7248 200.084 27.6274 200.364 27.4327C200.654 27.2272 200.799 26.9676 200.799 26.6538C200.799 26.3185 200.638 26.0696 200.316 25.9073C200.004 25.7451 199.504 25.5666 198.816 25.3718C198.15 25.1879 197.607 25.0094 197.188 24.8363C196.769 24.6633 196.403 24.3982 196.092 24.0412C195.79 23.6842 195.64 23.2136 195.64 22.6294C195.64 22.1534 195.78 21.7207 196.059 21.3313C196.338 20.931 196.737 20.6173 197.252 20.3901C197.779 20.1629 198.381 20.0493 199.058 20.0493C200.068 20.0493 200.88 20.3089 201.493 20.8282C202.116 21.3367 202.449 22.0345 202.492 22.9215H200.654C200.622 22.5213 200.461 22.2021 200.171 21.9641C199.88 21.7262 199.488 21.6071 198.994 21.6071C198.51 21.6071 198.139 21.699 197.881 21.883C197.623 22.0669 197.494 22.3103 197.494 22.6132C197.494 22.8512 197.58 23.0513 197.752 23.2136C197.924 23.3759 198.133 23.5057 198.381 23.6031C198.628 23.6897 198.994 23.8032 199.477 23.9438C200.122 24.1169 200.649 24.2954 201.057 24.4793C201.477 24.6524 201.836 24.912 202.138 25.2582C202.438 25.6045 202.594 26.0642 202.605 26.6376C202.605 27.1461 202.465 27.6004 202.186 28.0007C201.906 28.4009 201.509 28.7147 200.993 28.9418C200.487 29.169 199.891 29.2826 199.203 29.2826ZM207.815 29.2826C207.117 29.2826 206.489 29.1582 205.929 28.9094C205.381 28.6498 204.945 28.3035 204.623 27.8708C204.3 27.4273 204.129 26.9351 204.107 26.3942H206.009C206.042 26.7728 206.219 27.0919 206.542 27.3516C206.875 27.6004 207.289 27.7248 207.783 27.7248C208.299 27.7248 208.697 27.6274 208.976 27.4327C209.266 27.2272 209.411 26.9676 209.411 26.6538C209.411 26.3185 209.25 26.0696 208.928 25.9073C208.617 25.7451 208.117 25.5666 207.428 25.3718C206.763 25.1879 206.219 25.0094 205.8 24.8363C205.381 24.6633 205.016 24.3982 204.704 24.0412C204.403 23.6842 204.252 23.2136 204.252 22.6294C204.252 22.1534 204.393 21.7207 204.671 21.3313C204.951 20.931 205.348 20.6173 205.864 20.3901C206.392 20.1629 206.993 20.0493 207.67 20.0493C208.681 20.0493 209.492 20.3089 210.105 20.8282C210.729 21.3367 211.062 22.0345 211.104 22.9215H209.266C209.234 22.5213 209.073 22.2021 208.783 21.9641C208.492 21.7262 208.101 21.6071 207.606 21.6071C207.122 21.6071 206.751 21.699 206.493 21.883C206.235 22.0669 206.106 22.3103 206.106 22.6132C206.106 22.8512 206.193 23.0513 206.364 23.2136C206.537 23.3759 206.747 23.5057 206.993 23.6031C207.241 23.6897 207.606 23.8032 208.089 23.9438C208.734 24.1169 209.262 24.2954 209.669 24.4793C210.089 24.6524 210.449 24.912 210.75 25.2582C211.051 25.6045 211.207 26.0642 211.217 26.6376C211.217 27.1461 211.078 27.6004 210.798 28.0007C210.519 28.4009 210.121 28.7147 209.605 28.9418C209.1 29.169 208.504 29.2826 207.815 29.2826Z" fill="#554DF1"/>
<path d="M249.813 17.6963L236.465 31.3031" stroke="#E2E1F1" stroke-width="2" stroke-linecap="round" stroke-linejoin="round"/>
<path d="M236.465 17.6963L249.813 31.3031" stroke="#E2E1F1" stroke-width="2" stroke-linecap="round" stroke-linejoin="round"/>
</g>
<defs>
<clipPath id="clip0_108_478">
<rect width="264" height="49" rx="10" fill="white"/>
</clipPath>
</defs>
</svg>
