<svg width="302" height="69" viewBox="0 0 302 69" fill="none" xmlns="http://www.w3.org/2000/svg">
<path d="M292.585 0.621582H8.78632C3.93377 0.621582 0 4.5594 0 9.41695V59.5506C0 64.4081 3.93377 68.3459 8.78632 68.3459H292.585C297.437 68.3459 301.371 64.4081 301.371 59.5506V9.41695C301.371 4.5594 297.437 0.621582 292.585 0.621582Z" fill="white"/>
<path d="M20.9183 20.8099V23.9947H25.967V25.6394H20.9183V29.6466H18.9766V19.1801H26.6092V20.8099H20.9183ZM28.162 21.6621H30.0291V29.6466H28.162V21.6621ZM29.103 20.3463C28.7644 20.3463 28.4806 20.2417 28.2516 20.0323C28.0225 19.8133 27.908 19.5442 27.908 19.2249C27.908 18.9057 28.0225 18.6418 28.2516 18.4325C28.4806 18.2135 28.7644 18.1035 29.103 18.1035C29.4415 18.1035 29.7253 18.2082 29.9544 18.4175C30.1834 18.6172 30.2979 18.8714 30.2979 19.1801C30.2979 19.509 30.1834 19.7878 29.9544 20.0174C29.7353 20.2364 29.4515 20.3463 29.103 20.3463ZM37.2743 29.213C37.0552 29.3924 36.7863 29.5269 36.4678 29.6167C36.159 29.7064 35.8304 29.7512 35.4819 29.7512C34.6056 29.7512 33.9285 29.5217 33.4505 29.0634C32.9726 28.6052 32.7336 27.9367 32.7336 27.0598V23.2171H31.4191V21.7219H32.7336V19.8978H34.6007V21.7219H36.7366V23.2171H34.6007V27.015C34.6007 27.4037 34.6952 27.7028 34.8845 27.9121C35.0736 28.1118 35.3475 28.2112 35.706 28.2112C36.1242 28.2112 36.4727 28.1012 36.7516 27.8822L37.2743 29.213ZM43.336 21.5724C44.3418 21.5724 45.1484 21.8662 45.7558 22.4546C46.3633 23.043 46.6669 23.9146 46.6669 25.0712V29.6466H44.7998V25.3104C44.7998 24.613 44.6355 24.0896 44.3069 23.7405C43.9783 23.3816 43.5103 23.2022 42.9029 23.2022C42.2158 23.2022 41.6731 23.4115 41.2748 23.8302C40.8765 24.2392 40.6773 24.832 40.6773 25.6095V29.6466H38.8102V21.6621H40.5877V22.6938C40.8964 22.3253 41.2848 22.0456 41.7527 21.8565C42.2208 21.6674 42.7486 21.5724 43.336 21.5724ZM56.6066 25.6992C56.6066 25.8285 56.5967 26.0132 56.5767 26.2524H50.3183C50.4278 26.8408 50.7116 27.3087 51.1696 27.6579C51.6377 27.9965 52.2152 28.1663 52.9023 28.1663C53.7787 28.1663 54.5005 27.8769 55.0681 27.2991L56.0689 28.4504C55.7104 28.8787 55.2574 29.2033 54.7097 29.4223C54.162 29.6413 53.5446 29.7512 52.8575 29.7512C51.9812 29.7512 51.2095 29.5771 50.5423 29.2279C49.8752 28.8787 49.3574 28.3959 48.9889 27.7775C48.6304 27.1496 48.4512 26.4415 48.4512 25.6543C48.4512 24.8768 48.6255 24.1794 48.9739 23.561C49.3324 22.9331 49.8253 22.4449 50.4527 22.0957C51.08 21.7466 51.7871 21.5724 52.5737 21.5724C53.3504 21.5724 54.0425 21.7466 54.6499 22.0957C55.2673 22.4344 55.7453 22.9181 56.0838 23.5461C56.4324 24.1644 56.6066 24.8821 56.6066 25.6992ZM52.5737 23.0676C51.9762 23.0676 51.4684 23.2471 51.0502 23.6059C50.6419 23.9551 50.3929 24.423 50.3033 25.0114H54.8291C54.7495 24.4335 54.5055 23.9648 54.0972 23.6059C53.689 23.2471 53.1812 23.0676 52.5737 23.0676ZM60.8646 29.7512C60.2174 29.7512 59.5851 29.6668 58.9677 29.497C58.3503 29.3273 57.8574 29.1136 57.4889 28.8541L58.2059 27.4336C58.5644 27.6729 58.9926 27.8673 59.4905 28.0168C59.9983 28.1566 60.4962 28.2261 60.9841 28.2261C62.0995 28.2261 62.6571 27.9323 62.6571 27.3439C62.6571 27.0651 62.5127 26.8707 62.2239 26.7608C61.9451 26.6509 61.492 26.5462 60.8646 26.4468C60.2074 26.3474 59.6697 26.2322 59.2515 26.1029C58.8433 25.9736 58.4848 25.7493 58.176 25.4301C57.8773 25.1011 57.7279 24.6473 57.7279 24.0694C57.7279 23.3121 58.0416 22.7088 58.6689 22.2602C59.3063 21.802 60.1626 21.5724 61.2381 21.5724C61.7858 21.5724 62.3335 21.6375 62.8811 21.7668C63.4288 21.8864 63.8769 22.0509 64.2254 22.2602L63.5084 23.6807C62.8314 23.2822 62.0696 23.0826 61.2231 23.0826C60.6755 23.0826 60.2572 23.167 59.9684 23.3368C59.6896 23.496 59.5502 23.7106 59.5502 23.9797C59.5502 24.2787 59.6996 24.4934 59.9983 24.6226C60.3071 24.7423 60.78 24.8566 61.4173 24.9665C62.0547 25.0659 62.5775 25.1812 62.9857 25.3104C63.394 25.4397 63.7425 25.6596 64.0312 25.9683C64.33 26.2771 64.4793 26.7159 64.4793 27.2841C64.4793 28.0317 64.1557 28.6298 63.5084 29.0784C62.8612 29.5269 61.98 29.7512 60.8646 29.7512ZM68.5519 29.7512C67.9046 29.7512 67.2722 29.6668 66.6549 29.497C66.0375 29.3273 65.5446 29.1136 65.1762 28.8541L65.8931 27.4336C66.2516 27.6729 66.6798 27.8673 67.1777 28.0168C67.6856 28.1566 68.1834 28.2261 68.6714 28.2261C69.7866 28.2261 70.3443 27.9323 70.3443 27.3439C70.3443 27.0651 70.1998 26.8707 69.9111 26.7608C69.6323 26.6509 69.1792 26.5462 68.5519 26.4468C67.8947 26.3474 67.3569 26.2322 66.9387 26.1029C66.5304 25.9736 66.1719 25.7493 65.8633 25.4301C65.5645 25.1011 65.4152 24.6473 65.4152 24.0694C65.4152 23.3121 65.7288 22.7088 66.3562 22.2602C66.9935 21.802 67.8499 21.5724 68.9253 21.5724C69.473 21.5724 70.0206 21.6375 70.5683 21.7668C71.116 21.8864 71.5641 22.0509 71.9127 22.2602L71.1957 23.6807C70.5185 23.2822 69.7568 23.0826 68.9104 23.0826C68.3626 23.0826 67.9444 23.167 67.6557 23.3368C67.3768 23.496 67.2375 23.7106 67.2375 23.9797C67.2375 24.2787 67.3868 24.4934 67.6856 24.6226C67.9942 24.7423 68.4672 24.8566 69.1045 24.9665C69.7418 25.0659 70.2646 25.1812 70.6729 25.3104C71.0811 25.4397 71.4297 25.6596 71.7185 25.9683C72.0172 26.2771 72.1666 26.7159 72.1666 27.2841C72.1666 28.0317 71.8429 28.6298 71.1957 29.0784C70.5484 29.5269 69.6671 29.7512 68.5519 29.7512Z" fill="#191D3A"/>
<path d="M18.041 46.3935V45.3714H20.3536V54.2741H19.2219V46.3935H18.041ZM22.2518 47.6125C22.3091 46.857 22.6002 46.2659 23.1251 45.8394C23.6499 45.4128 24.3306 45.1991 25.1671 45.1991C25.7247 45.1991 26.2044 45.302 26.6063 45.5069C27.0162 45.7039 27.3238 45.9748 27.5288 46.3196C27.742 46.6644 27.8487 47.054 27.8487 47.4894C27.8487 47.9986 27.701 48.4375 27.4058 48.8069C27.1188 49.1763 26.7416 49.4147 26.2741 49.5211V49.5827C26.8071 49.7137 27.2295 49.9723 27.5411 50.3584C27.8527 50.7445 28.0086 51.2494 28.0086 51.873C28.0086 52.3409 27.9019 52.764 27.6887 53.1413C27.4755 53.5107 27.1557 53.8018 26.7293 54.0155C26.3028 54.2293 25.7903 54.3357 25.1917 54.3357C24.3224 54.3357 23.6089 54.1096 23.0513 53.6584C22.4937 53.1984 22.182 52.5502 22.1165 51.7129H23.1989C23.2563 52.2054 23.4573 52.6074 23.8017 52.9196C24.1461 53.2319 24.6053 53.3875 25.1794 53.3875C25.7534 53.3875 26.188 53.2398 26.4833 52.9443C26.7867 52.6408 26.9384 52.2503 26.9384 51.7745C26.9384 51.1588 26.7333 50.7155 26.3234 50.4446C25.9133 50.1737 25.2941 50.0383 24.4659 50.0383H24.183V49.1024H24.4782C25.2326 49.0945 25.8026 48.9714 26.188 48.733C26.5734 48.4868 26.7662 48.1094 26.7662 47.6002C26.7662 47.1648 26.6226 46.8165 26.3357 46.5535C26.0568 46.2906 25.655 46.1595 25.1302 46.1595C24.6217 46.1595 24.2116 46.2906 23.9001 46.5535C23.5884 46.8165 23.4039 47.1692 23.3465 47.6125H22.2518ZM35.1906 46.3442H30.873V49.1517C31.0616 48.8887 31.3404 48.6759 31.7095 48.5114C32.0785 48.339 32.4762 48.2528 32.9026 48.2528C33.5833 48.2528 34.1369 48.3962 34.5633 48.6838C34.9897 48.9626 35.2931 49.3285 35.4735 49.7797C35.6622 50.223 35.7564 50.6953 35.7564 51.1957C35.7564 51.7868 35.6457 52.3163 35.4243 52.7842C35.2029 53.2521 34.8626 53.6215 34.4033 53.8924C33.9523 54.1633 33.3905 54.2987 32.7181 54.2987C31.8571 54.2987 31.16 54.0771 30.627 53.6338C30.0939 53.1905 29.7701 52.5995 29.6552 51.8607H30.75C30.8566 52.3286 31.0821 52.6936 31.4265 52.9566C31.771 53.2195 32.2056 53.3506 32.7304 53.3506C33.3782 53.3506 33.8662 53.158 34.1942 52.7719C34.5222 52.3778 34.6863 51.8607 34.6863 51.2204C34.6863 50.5801 34.5222 50.0875 34.1942 49.7427C33.8662 49.3901 33.3824 49.2133 32.7427 49.2133C32.3081 49.2133 31.9267 49.3197 31.5988 49.5334C31.2789 49.7383 31.0452 50.0216 30.8976 50.383H29.8397V45.3591H35.1906V46.3442ZM42.0734 48.4498V52.4271C42.0734 52.7551 42.143 52.9891 42.2825 53.129C42.4218 53.26 42.6638 53.326 43.0082 53.326H43.8324V54.2741H42.8237C42.2004 54.2741 41.733 54.1307 41.4214 53.8431C41.1098 53.5555 40.954 53.0841 40.954 52.4271V48.4498H40.0806V47.5263H40.954V45.827H42.0734V47.5263H43.8324V48.4498H42.0734ZM51.3391 50.6416C51.3391 50.8553 51.3268 51.0805 51.3022 51.3189H45.9144C45.9553 51.9838 46.1809 52.5054 46.5909 52.8827C47.0092 53.2521 47.5135 53.4368 48.1039 53.4368C48.5877 53.4368 48.9896 53.326 49.3094 53.1043C49.6374 52.8748 49.867 52.5705 49.9983 52.1931H51.2038C51.0233 52.8414 50.6625 53.3708 50.1213 53.7816C49.58 54.1835 48.9075 54.3849 48.1039 54.3849C47.4643 54.3849 46.8902 54.2416 46.3818 53.954C45.8815 53.6664 45.4879 53.26 45.2009 52.7349C44.9139 52.201 44.7704 51.5854 44.7704 50.8879C44.7704 50.1904 44.9098 49.5783 45.1886 49.0532C45.4674 48.5281 45.8569 48.1253 46.3572 47.8465C46.8656 47.5588 47.4479 47.4155 48.1039 47.4155C48.7436 47.4155 49.3094 47.5553 49.8015 47.8341C50.2935 48.113 50.6707 48.4991 50.9331 48.9916C51.2038 49.4762 51.3391 50.0259 51.3391 50.6416ZM50.1828 50.4077C50.1828 49.9811 50.0884 49.6152 49.8999 49.3118C49.7112 48.9995 49.4529 48.7656 49.1249 48.6099C48.8051 48.4454 48.4484 48.3636 48.0547 48.3636C47.4889 48.3636 47.005 48.5439 46.6032 48.9054C46.2096 49.2669 45.9841 49.7674 45.9267 50.4077H50.1828ZM52.3983 50.8756C52.3983 50.186 52.5378 49.5827 52.8166 49.0655C53.0954 48.5404 53.4767 48.1341 53.9606 47.8465C54.4526 47.5588 54.998 47.4155 55.5966 47.4155C56.187 47.4155 56.6995 47.543 57.1342 47.7972C57.5688 48.0514 57.8927 48.3715 58.1059 48.7577V47.5263H59.2376V54.2741H58.1059V53.0181C57.8845 53.4122 57.5524 53.7402 57.1096 54.0032C56.6749 54.2574 56.1665 54.3849 55.5843 54.3849C54.9857 54.3849 54.4444 54.2372 53.9606 53.9416C53.4767 53.6461 53.0954 53.2319 52.8166 52.698C52.5378 52.1641 52.3983 51.5572 52.3983 50.8756ZM58.1059 50.8879C58.1059 50.3786 58.0034 49.9354 57.7984 49.558C57.5934 49.1807 57.3146 48.8931 56.962 48.6961C56.6175 48.4912 56.2362 48.3883 55.818 48.3883C55.3998 48.3883 55.0184 48.4868 54.674 48.6838C54.3296 48.8808 54.0548 49.1684 53.8498 49.5457C53.6449 49.923 53.5423 50.3663 53.5423 50.8756C53.5423 51.3928 53.6449 51.8439 53.8498 52.2301C54.0548 52.6074 54.3296 52.8994 54.674 53.1043C55.0184 53.3013 55.3998 53.3999 55.818 53.3999C56.2362 53.3999 56.6175 53.3013 56.962 53.1043C57.3146 52.8994 57.5934 52.6074 57.7984 52.2301C58.0034 51.8439 58.1059 51.3971 58.1059 50.8879ZM60.711 50.8879C60.711 50.1904 60.8504 49.5827 61.1292 49.0655C61.4081 48.5404 61.7935 48.1341 62.2855 47.8465C62.7858 47.5588 63.3557 47.4155 63.9953 47.4155C64.8236 47.4155 65.5043 47.6169 66.0373 48.0188C66.5785 48.4208 66.9352 48.9793 67.1074 49.6935H65.902C65.7872 49.2827 65.5617 48.9591 65.2254 48.7207C64.8974 48.4824 64.4874 48.3636 63.9953 48.3636C63.3557 48.3636 62.839 48.5853 62.4454 49.0286C62.0518 49.4639 61.855 50.0831 61.855 50.8879C61.855 51.7006 62.0518 52.3286 62.4454 52.7719C62.839 53.2152 63.3557 53.4368 63.9953 53.4368C64.4874 53.4368 64.8974 53.3216 65.2254 53.092C65.5535 52.8625 65.7789 52.5335 65.902 52.1069H67.1074C66.9271 52.7965 66.5662 53.3506 66.025 53.7693C65.4837 54.18 64.8072 54.3849 63.9953 54.3849C63.3557 54.3849 62.7858 54.2416 62.2855 53.954C61.7935 53.6664 61.4081 53.26 61.1292 52.7349C60.8504 52.2098 60.711 51.5942 60.711 50.8879ZM71.9469 47.4032C72.4553 47.4032 72.9146 47.514 73.3246 47.7356C73.7346 47.9494 74.0544 48.273 74.284 48.7084C74.5219 49.1438 74.6407 49.6733 74.6407 50.2968V54.2741H73.5337V50.4569C73.5337 49.7841 73.3656 49.2704 73.0293 48.9177C72.6932 48.5562 72.2339 48.3759 71.6516 48.3759C71.0612 48.3759 70.5897 48.5606 70.237 48.93C69.8926 49.2994 69.7204 49.8368 69.7204 50.5431V54.2741H68.601V45.1621H69.7204V48.4868C69.9418 48.142 70.2453 47.8755 70.6307 47.6864C71.0243 47.4973 71.4631 47.4032 71.9469 47.4032ZM82.6197 50.6416C82.6197 50.8553 82.6074 51.0805 82.5828 51.3189H77.195C77.236 51.9838 77.4616 52.5054 77.8716 52.8827C78.2898 53.2521 78.7941 53.4368 79.3846 53.4368C79.8684 53.4368 80.2702 53.326 80.5901 53.1043C80.9181 52.8748 81.1477 52.5705 81.2789 52.1931H82.4844C82.304 52.8414 81.9431 53.3708 81.4019 53.7816C80.8607 54.1835 80.1883 54.3849 79.3846 54.3849C78.7449 54.3849 78.1709 54.2416 77.6624 53.954C77.1622 53.6664 76.7686 53.26 76.4816 52.7349C76.1946 52.201 76.051 51.5854 76.051 50.8879C76.051 50.1904 76.1905 49.5783 76.4693 49.0532C76.7481 48.5281 77.1376 48.1253 77.6378 47.8465C78.1463 47.5588 78.7286 47.4155 79.3846 47.4155C80.0242 47.4155 80.59 47.5553 81.0821 47.8341C81.5741 48.113 81.9514 48.4991 82.2138 48.9916C82.4844 49.4762 82.6197 50.0259 82.6197 50.6416ZM81.4634 50.4077C81.4634 49.9811 81.3691 49.6152 81.1805 49.3118C80.9919 48.9995 80.7336 48.7656 80.4055 48.6099C80.0857 48.4454 79.729 48.3636 79.3354 48.3636C78.7695 48.3636 78.2858 48.5439 77.8839 48.9054C77.4902 49.2669 77.2648 49.7674 77.2073 50.4077H81.4634ZM85.2167 48.6222C85.4135 48.2361 85.6923 47.9371 86.0531 47.7233C86.4221 47.5096 86.869 47.4032 87.3939 47.4032V48.5606H87.0987C85.844 48.5606 85.2167 49.2423 85.2167 50.6047V54.2741H84.0973V47.5263H85.2167V48.6222ZM91.072 54.3849C90.5554 54.3849 90.0924 54.2987 89.6821 54.1264C89.2726 53.946 88.9484 53.6998 88.7103 53.3875C88.4731 53.0674 88.3413 52.7024 88.3167 52.2916H89.4729C89.5063 52.6285 89.6618 52.9029 89.9404 53.1166C90.2277 53.3304 90.6011 53.4368 91.0597 53.4368C91.4868 53.4368 91.8224 53.3427 92.0684 53.1536C92.3144 52.9645 92.4374 52.727 92.4374 52.4394C92.4374 52.1439 92.3065 51.9266 92.0438 51.7868C91.782 51.639 91.3761 51.4957 90.826 51.3558C90.3261 51.2248 89.9158 51.0928 89.5959 50.9618C89.2849 50.8219 89.0143 50.6214 88.7841 50.3584C88.5627 50.0875 88.452 49.7348 88.452 49.2994C88.452 48.9547 88.5548 48.6389 88.7595 48.3513C88.9651 48.0637 89.2559 47.8385 89.6329 47.6741C90.0107 47.5017 90.4412 47.4155 90.9244 47.4155C91.6713 47.4155 92.274 47.6046 92.7327 47.9819C93.1922 48.3592 93.4382 48.8764 93.4707 49.5334H92.3513C92.3267 49.1807 92.1835 48.8975 91.9208 48.6838C91.6669 48.47 91.3225 48.3636 90.8875 48.3636C90.486 48.3636 90.1662 48.4498 89.9281 48.6222C89.6908 48.7946 89.5713 49.0206 89.5713 49.2994C89.5713 49.5211 89.6416 49.7058 89.7805 49.8536C89.9281 49.9934 90.1091 50.1077 90.3217 50.1983C90.5431 50.2801 90.8471 50.3751 91.232 50.4816C91.7161 50.6126 92.1097 50.7445 92.4128 50.8756C92.7169 50.9987 92.9752 51.1878 93.1878 51.442C93.4092 51.6962 93.5243 52.0287 93.5322 52.4394C93.5322 52.8088 93.4303 53.1413 93.2247 53.4368C93.02 53.7323 92.7291 53.9663 92.3513 54.1387C91.9823 54.3031 91.5562 54.3849 91.072 54.3849Z" fill="#A7A6CE"/>
<path d="M272.315 44.1597C261.459 33.293 272.252 44.0972 261.396 33.2297C261.095 32.928 260.606 32.928 260.304 33.2297L259.213 34.3229C258.309 35.2271 258.309 36.6977 259.213 37.6019L259.758 38.1481L259.213 38.6951C258.309 39.5993 258.309 41.0699 259.213 41.974L263.58 46.3453C264.484 47.2495 265.953 47.2495 266.856 46.3453L267.401 45.7992L267.947 46.3453C268.85 47.2495 270.32 47.2495 271.223 46.3453L272.315 45.253C272.617 44.9504 272.617 44.4614 272.315 44.1597Z" fill="#FF827A"/>
<path d="M282.026 32.2458L281.48 31.6996L282.026 31.1526C282.929 30.2493 282.929 28.7778 282.026 27.8736L277.658 23.5023C276.755 22.5982 275.286 22.5982 274.383 23.5023L273.837 24.0485L273.292 23.5023C272.388 22.5982 270.918 22.5982 270.015 23.5023L268.924 24.5947C268.622 24.8973 268.622 25.3863 268.924 25.688L279.843 36.618C280.144 36.9197 280.633 36.9197 280.934 36.618L282.026 35.5247C282.929 34.6206 282.929 33.15 282.026 32.2458Z" fill="#FF827A"/>
<path d="M283.119 22.4091C282.216 21.5049 280.747 21.5049 279.843 22.4091L279.297 22.9553L282.573 26.2342L283.119 25.688C284.022 24.7838 284.022 23.3132 283.119 22.4091Z" fill="#FF827A"/>
<path d="M258.664 43.6138L258.119 44.16C257.216 45.0641 257.216 46.5347 258.119 47.4389C259.022 48.343 260.491 48.343 261.394 47.4389L261.94 46.8927L258.664 43.6138Z" fill="#FF827A"/>
<path d="M271.652 30.6064L266.307 35.9628L269.583 39.2417L274.928 33.8854L271.652 30.6064Z" fill="#FF827A"/>
</svg>
