<svg width="302" height="68" viewBox="0 0 302 68" fill="none" xmlns="http://www.w3.org/2000/svg">
<path d="M293.213 0.0527344H9.41523C4.56268 0.0527344 0.628906 3.99056 0.628906 8.84811V58.9817C0.628906 63.8393 4.56268 67.7771 9.41523 67.7771H293.213C298.066 67.7771 302 63.8393 302 58.9817V8.84811C302 3.99056 298.066 0.0527344 293.213 0.0527344Z" fill="white"/>
<path d="M26.4465 28.1983L24.3105 25.1331C24.2209 25.1428 24.0865 25.1481 23.9073 25.1481H21.5472V28.1983H19.6055V17.7318H23.9073C24.8134 17.7318 25.6001 17.8813 26.2673 18.1804C26.9444 18.4794 27.4622 18.9078 27.8207 19.4663C28.1792 20.0248 28.3584 20.6871 28.3584 21.4549C28.3584 22.2421 28.1642 22.9202 27.7759 23.4884C27.3974 24.0566 26.8498 24.4805 26.1328 24.7593L28.5376 28.1983H26.4465ZM26.4017 21.4549C26.4017 20.7873 26.1826 20.2737 25.7445 19.9148C25.3063 19.556 24.664 19.3766 23.8176 19.3766H21.5472V23.5482H23.8176C24.664 23.5482 25.3063 23.3688 25.7445 23.0099C26.1826 22.6414 26.4017 22.1225 26.4017 21.4549ZM33.9365 28.303C33.1299 28.303 32.4029 28.1288 31.7557 27.7796C31.1084 27.4305 30.6006 26.9476 30.2322 26.3293C29.8737 25.7013 29.6945 24.9933 29.6945 24.2061C29.6945 23.4189 29.8737 22.7162 30.2322 22.0978C30.6006 21.4795 31.1084 20.9967 31.7557 20.6475C32.4029 20.2983 33.1299 20.1242 33.9365 20.1242C34.753 20.1242 35.4849 20.2983 36.1322 20.6475C36.7794 20.9967 37.2823 21.4795 37.6408 22.0978C38.0092 22.7162 38.1935 23.4189 38.1935 24.2061C38.1935 24.9933 38.0092 25.7013 37.6408 26.3293C37.2823 26.9476 36.7794 27.4305 36.1322 27.7796C35.4849 28.1288 34.753 28.303 33.9365 28.303ZM33.9365 26.7031C34.6236 26.7031 35.1912 26.4735 35.6393 26.0153C36.0874 25.5571 36.3114 24.9537 36.3114 24.2061C36.3114 23.4585 36.0874 22.8551 35.6393 22.3969C35.1912 21.9386 34.6236 21.7091 33.9365 21.7091C33.2494 21.7091 32.6818 21.9386 32.2337 22.3969C31.7955 22.8551 31.5765 23.4585 31.5765 24.2061C31.5765 24.9537 31.7955 25.5571 32.2337 26.0153C32.6818 26.4735 33.2494 26.7031 33.9365 26.7031ZM43.6383 28.303C42.8118 28.303 42.07 28.1288 41.4128 27.7796C40.7555 27.4305 40.2427 26.9476 39.8743 26.3293C39.5059 25.7013 39.3216 24.9933 39.3216 24.2061C39.3216 23.4189 39.5059 22.7162 39.8743 22.0978C40.2427 21.4795 40.7505 20.9967 41.3978 20.6475C42.055 20.2983 42.8019 20.1242 43.6383 20.1242C44.425 20.1242 45.1121 20.2834 45.6996 20.6026C46.2971 20.9219 46.7452 21.3801 47.0439 21.9782L45.61 22.8155C45.3809 22.447 45.0922 22.1726 44.7437 21.9932C44.4051 21.8041 44.0317 21.7091 43.6234 21.7091C42.9264 21.7091 42.3488 21.9386 41.8907 22.3969C41.4327 22.8454 41.2037 23.4488 41.2037 24.2061C41.2037 24.9634 41.4277 25.572 41.8758 26.0303C42.3338 26.4788 42.9164 26.7031 43.6234 26.7031C44.0317 26.7031 44.4051 26.6134 44.7437 26.4339C45.0922 26.2448 45.3809 25.9652 45.61 25.5966L47.0439 26.4339C46.7353 27.032 46.2821 27.4956 45.6847 27.8245C45.0971 28.1438 44.4151 28.303 43.6383 28.303ZM51.8412 24.7743L50.452 26.0901V28.1983H48.585V17.1038H50.452V23.8024L54.3207 20.2139H56.5612L53.2303 23.5632L56.8749 28.1983H54.6045L51.8412 24.7743ZM67.2277 28.3478C66.1721 28.3478 65.2161 28.1183 64.3598 27.66C63.5134 27.1912 62.8462 26.5483 62.3583 25.7312C61.8803 24.9141 61.6413 23.9915 61.6413 22.9651C61.6413 21.9386 61.8852 21.016 62.3732 20.1989C62.8611 19.3818 63.5283 18.7433 64.3748 18.2851C65.2311 17.8163 66.187 17.5823 67.2426 17.5823C68.0989 17.5823 68.8806 17.7318 69.5877 18.0309C70.2946 18.3299 70.8921 18.7635 71.3801 19.3317L70.1254 20.5129C69.3686 19.6958 68.4376 19.2869 67.3322 19.2869C66.6153 19.2869 65.973 19.446 65.4054 19.7653C64.8378 20.074 64.3946 20.5076 64.076 21.0661C63.7574 21.6246 63.598 22.257 63.598 22.9651C63.598 23.6731 63.7574 24.3055 64.076 24.864C64.3946 25.4225 64.8378 25.8605 65.4054 26.1798C65.973 26.4885 66.6153 26.6433 67.3322 26.6433C68.4376 26.6433 69.3686 26.2299 70.1254 25.4023L71.3801 26.5984C70.8921 27.1666 70.2897 27.6002 69.5728 27.8993C68.8657 28.1983 68.084 28.3478 67.2277 28.3478ZM73.0614 17.1038H74.9285V28.1983H73.0614V17.1038ZM77.379 20.2139H79.2461V28.1983H77.379V20.2139ZM78.3201 18.8981C77.9815 18.8981 77.6977 18.7934 77.4687 18.5841C77.2396 18.3651 77.1251 18.0959 77.1251 17.7767C77.1251 17.4574 77.2396 17.1935 77.4687 16.9842C77.6977 16.7652 77.9815 16.6553 78.3201 16.6553C78.6586 16.6553 78.9424 16.7599 79.1715 16.9693C79.4005 17.1689 79.515 17.4231 79.515 17.7318C79.515 18.0608 79.4005 18.3396 79.1715 18.5691C78.9524 18.7881 78.6686 18.8981 78.3201 18.8981ZM91.764 20.1242C92.77 20.1242 93.5661 20.4179 94.1539 21.0063C94.7417 21.5842 95.0352 22.4567 95.0352 23.623V28.1983H93.1681V23.8622C93.1681 23.1647 93.0134 22.6414 92.705 22.2922C92.3966 21.9334 91.9529 21.7539 91.3757 21.7539C90.7483 21.7539 90.2457 21.9633 89.8671 22.3819C89.4884 22.7909 89.2994 23.3785 89.2994 24.1463V28.1983H87.4324V23.8622C87.4324 23.1647 87.2781 22.6414 86.9694 22.2922C86.6607 21.9334 86.2176 21.7539 85.64 21.7539C85.0027 21.7539 84.4948 21.958 84.1165 22.367C83.748 22.776 83.5638 23.3688 83.5638 24.1463V28.1983H81.6967V20.2139H83.4742V21.2306C83.7729 20.8718 84.1464 20.5974 84.5945 20.4083C85.0426 20.2192 85.5404 20.1242 86.0881 20.1242C86.6856 20.1242 87.2133 20.2385 87.6714 20.4681C88.1394 20.6871 88.5078 21.016 88.7767 21.4549C89.1053 21.0362 89.5288 20.7126 90.0463 20.483C90.5638 20.2438 91.1367 20.1242 91.764 20.1242ZM101.843 20.1242C102.62 20.1242 103.311 20.2939 103.919 20.6325C104.536 20.9712 105.019 21.4496 105.368 22.0679C105.716 22.6862 105.891 23.3987 105.891 24.2061C105.891 25.0135 105.716 25.7312 105.368 26.3592C105.019 26.9775 104.536 27.456 103.919 27.7946C103.311 28.1332 102.62 28.303 101.843 28.303C101.295 28.303 100.792 28.208 100.334 28.0189C99.8861 27.8298 99.5074 27.5457 99.199 27.1666V28.1983H97.4215V17.1038H99.2886V21.1858C99.6067 20.8366 99.9801 20.5727 100.409 20.3933C100.846 20.2139 101.324 20.1242 101.843 20.1242ZM101.634 26.7031C102.321 26.7031 102.883 26.4735 103.322 26.0153C103.77 25.5571 103.994 24.9537 103.994 24.2061C103.994 23.4585 103.77 22.8551 103.322 22.3969C102.883 21.9386 102.321 21.7091 101.634 21.7091C101.186 21.7091 100.782 21.8138 100.424 22.0231C100.065 22.2227 99.7815 22.5112 99.5724 22.8903C99.3633 23.2694 99.2587 23.7074 99.2587 24.2061C99.2587 24.7048 99.3633 25.1428 99.5724 25.5219C99.7815 25.901 100.065 26.1947 100.424 26.404C100.782 26.6037 101.186 26.7031 101.634 26.7031ZM107.661 20.2139H109.528V28.1983H107.661V20.2139ZM108.602 18.8981C108.264 18.8981 107.98 18.7934 107.751 18.5841C107.521 18.3651 107.407 18.0959 107.407 17.7767C107.407 17.4574 107.521 17.1935 107.751 16.9842C107.98 16.7652 108.264 16.6553 108.602 16.6553C108.94 16.6553 109.224 16.7599 109.454 16.9693C109.683 17.1689 109.797 17.4231 109.797 17.7318C109.797 18.0608 109.683 18.3396 109.454 18.5691C109.235 18.7881 108.951 18.8981 108.602 18.8981ZM116.505 20.1242C117.511 20.1242 118.317 20.4179 118.924 21.0063C119.531 21.5947 119.835 22.4664 119.835 23.623V28.1983H117.968V23.8622C117.968 23.1647 117.804 22.6414 117.475 22.2922C117.147 21.9334 116.679 21.7539 116.071 21.7539C115.384 21.7539 114.841 21.9633 114.443 22.3819C114.045 22.7909 113.846 23.3837 113.846 24.1612V28.1983H111.979V20.2139H113.756V21.2456C114.065 20.877 114.453 20.5974 114.921 20.4083C115.39 20.2192 115.917 20.1242 116.505 20.1242ZM130.194 20.2139V26.9872C130.194 29.7982 128.76 31.2037 125.892 31.2037C125.125 31.2037 124.398 31.1043 123.711 30.9046C123.024 30.7155 122.456 30.4358 122.008 30.0673L122.845 28.6618C123.193 28.9512 123.631 29.1799 124.159 29.3496C124.697 29.529 125.239 29.6187 125.787 29.6187C126.663 29.6187 127.306 29.4191 127.714 29.0207C128.122 28.6222 128.327 28.0136 128.327 27.1965V26.7779C128.008 27.127 127.619 27.3909 127.161 27.5703C126.703 27.7498 126.2 27.8395 125.653 27.8395C124.895 27.8395 124.208 27.6803 123.592 27.361C122.984 27.032 122.501 26.5738 122.143 25.9854C121.794 25.397 121.62 24.7241 121.62 23.9669C121.62 23.2096 121.794 22.5411 122.143 21.9633C122.501 21.3749 122.984 20.9219 123.592 20.6026C124.208 20.2834 124.895 20.1242 125.653 20.1242C126.23 20.1242 126.753 20.2192 127.221 20.4083C127.699 20.5974 128.097 20.8867 128.416 21.2755V20.2139H130.194ZM125.937 26.2545C126.643 26.2545 127.221 26.0452 127.669 25.6265C128.127 25.1982 128.356 24.645 128.356 23.9669C128.356 23.2993 128.127 22.7557 127.669 22.3371C127.221 21.9184 126.643 21.7091 125.937 21.7091C125.22 21.7091 124.632 21.9184 124.174 22.3371C123.726 22.7557 123.502 23.2993 123.502 23.9669C123.502 24.645 123.726 25.1982 124.174 25.6265C124.632 26.0452 125.22 26.2545 125.937 26.2545Z" fill="#191D3A"/>
<path d="M18.8281 51.9265C19.8696 51.0892 20.6856 50.404 21.276 49.8702C21.8664 49.3284 22.3626 48.7663 22.7644 48.1832C23.1745 47.5921 23.3794 47.0134 23.3794 46.447C23.3794 45.9131 23.2483 45.4944 22.9858 45.191C22.7316 44.8788 22.3174 44.7231 21.7434 44.7231C21.1858 44.7231 20.7512 44.8999 20.4395 45.2526C20.1361 45.5974 19.9721 46.0608 19.9475 46.644H18.865C18.8978 45.7249 19.1767 45.0142 19.7015 44.5137C20.2263 44.0133 20.9028 43.7626 21.7311 43.7626C22.5758 43.7626 23.2441 43.9966 23.7362 44.4645C24.2364 44.9324 24.4865 45.5771 24.4865 46.3977C24.4865 47.0794 24.2815 47.7443 23.8715 48.3925C23.4697 49.0328 23.0104 49.5992 22.4938 50.0918C21.9771 50.5764 21.317 51.1428 20.5133 51.7911H24.7448V52.7269H18.8281V51.9265ZM26.0142 46.1638C26.0717 45.4082 26.3627 44.8172 26.8876 44.3906C27.4124 43.964 28.093 43.7503 28.9295 43.7503C29.4872 43.7503 29.9669 43.8532 30.3687 44.0582C30.7788 44.2552 31.0863 44.5261 31.2913 44.8708C31.5045 45.2156 31.6111 45.6053 31.6111 46.0406C31.6111 46.5499 31.4635 46.9888 31.1683 47.3582C30.8813 47.7276 30.504 47.9659 30.0366 48.0724V48.1339C30.5696 48.265 30.992 48.5236 31.3036 48.9097C31.6152 49.2958 31.771 49.8006 31.771 50.4242C31.771 50.8922 31.6644 51.3152 31.4512 51.6926C31.238 52.062 30.9182 52.3531 30.4917 52.5668C30.0653 52.7805 29.5528 52.887 28.9541 52.887C28.0849 52.887 27.3714 52.6609 26.8137 52.2097C26.2562 51.7497 25.9445 51.1015 25.8789 50.2642H26.9614C27.0188 50.7567 27.2197 51.1587 27.5641 51.4709C27.9085 51.7831 28.3678 51.9388 28.9418 51.9388C29.5159 51.9388 29.9505 51.7911 30.2457 51.4955C30.5492 51.1921 30.7008 50.8016 30.7008 50.3257C30.7008 49.7101 30.4958 49.2668 30.0858 48.9959C29.6758 48.725 29.0566 48.5895 28.2283 48.5895H27.9454V47.6537H28.2406C28.9951 47.6458 29.5651 47.5227 29.9505 47.2843C30.3359 47.038 30.5286 46.6607 30.5286 46.1514C30.5286 45.7161 30.3851 45.3678 30.0981 45.1048C29.8193 44.8418 29.4175 44.7108 28.8926 44.7108C28.3842 44.7108 27.9742 44.8418 27.6625 45.1048C27.3509 45.3678 27.1664 45.7205 27.109 46.1638H26.0142ZM33.0118 50.8429V49.9933L37.3294 44.0089H38.6702V49.8702H39.9003V50.8429H38.6702V52.8254H37.5631V50.8429H33.0118ZM37.6123 45.1787L34.3034 49.8702H37.6123V45.1787ZM45.8478 47.0011V50.9784C45.8478 51.3064 45.9175 51.5404 46.0569 51.6802C46.1964 51.8113 46.4383 51.8772 46.7827 51.8772H47.6068V52.8254H46.5982C45.975 52.8254 45.5075 52.682 45.1959 52.3944C44.8842 52.1068 44.7284 51.6354 44.7284 50.9784V47.0011H43.8551V46.0776H44.7284V44.3783H45.8478V46.0776H47.6068V47.0011H45.8478ZM55.1135 49.1929C55.1135 49.4066 55.1012 49.6318 55.0766 49.8702H49.6889C49.7299 50.5351 49.9553 51.0566 50.3654 51.434C50.7836 51.8034 51.288 51.9881 51.8784 51.9881C52.3623 51.9881 52.7641 51.8773 53.0839 51.6556C53.4119 51.4261 53.6416 51.1217 53.7727 50.7444H54.9782C54.7978 51.3926 54.437 51.9221 53.8957 52.3329C53.3545 52.7348 52.6821 52.9362 51.8784 52.9362C51.2388 52.9362 50.6647 52.7928 50.1563 52.5052C49.6561 52.2176 49.2625 51.8113 48.9754 51.2862C48.6884 50.7523 48.5449 50.1366 48.5449 49.4392C48.5449 48.7417 48.6843 48.1295 48.9631 47.6044C49.2419 47.0794 49.6315 46.6765 50.1317 46.3977C50.6401 46.1101 51.2223 45.9667 51.8784 45.9667C52.518 45.9667 53.0839 46.1066 53.5759 46.3854C54.068 46.6642 54.4452 47.0503 54.7076 47.5429C54.9782 48.0275 55.1135 48.5772 55.1135 49.1929ZM53.9572 48.9589C53.9572 48.5324 53.863 48.1665 53.6743 47.863C53.4857 47.5508 53.2274 47.3168 52.8994 47.1612C52.5796 46.9967 52.2228 46.9149 51.8292 46.9149C51.2634 46.9149 50.7795 47.0952 50.3777 47.4567C49.9841 47.8182 49.7585 48.3186 49.7012 48.9589H53.9572ZM56.1728 49.4268C56.1728 48.7373 56.3122 48.1339 56.591 47.6168C56.8699 47.0917 57.2512 46.6853 57.735 46.3977C58.2271 46.1101 58.7724 45.9667 59.371 45.9667C59.9615 45.9667 60.4741 46.0943 60.9086 46.3485C61.3433 46.6026 61.6672 46.9228 61.8804 47.3089V46.0776H63.0121V52.8254H61.8804V51.5694C61.659 51.9634 61.3269 52.2915 60.884 52.5545C60.4495 52.8087 59.941 52.9362 59.3587 52.9362C58.7601 52.9362 58.2189 52.7885 57.735 52.4929C57.2512 52.1974 56.8699 51.7831 56.591 51.2493C56.3122 50.7154 56.1728 50.1085 56.1728 49.4268ZM61.8804 49.4392C61.8804 48.9299 61.778 48.4866 61.5729 48.1093C61.3679 47.732 61.0891 47.4444 60.7364 47.2473C60.392 47.0424 60.0107 46.9395 59.5924 46.9395C59.1742 46.9395 58.7929 47.038 58.4485 47.2351C58.104 47.4321 57.8294 47.7197 57.6243 48.097C57.4193 48.4743 57.3168 48.9176 57.3168 49.4268C57.3168 49.944 57.4193 50.3952 57.6243 50.7813C57.8294 51.1587 58.104 51.4507 58.4485 51.6556C58.7929 51.8526 59.1742 51.9511 59.5924 51.9511C60.0107 51.9511 60.392 51.8526 60.7364 51.6556C61.0891 51.4507 61.3679 51.1587 61.5729 50.7813C61.778 50.3952 61.8804 49.9484 61.8804 49.4392ZM64.4855 49.4392C64.4855 48.7417 64.6249 48.1339 64.9038 47.6168C65.1826 47.0917 65.568 46.6853 66.0601 46.3977C66.5603 46.1101 67.1302 45.9667 67.7699 45.9667C68.5981 45.9667 69.2787 46.1682 69.8118 46.5701C70.3531 46.9721 70.7098 47.5306 70.882 48.2447H69.6765C69.5617 47.834 69.3361 47.5103 69 47.272C68.6719 47.0336 68.2619 46.9149 67.7699 46.9149C67.1302 46.9149 66.6136 47.1365 66.22 47.5798C65.8263 48.0152 65.6295 48.6344 65.6295 49.4392C65.6295 50.2519 65.8263 50.8798 66.22 51.3231C66.6136 51.7664 67.1302 51.9881 67.7699 51.9881C68.2619 51.9881 68.6719 51.8729 69 51.6433C69.328 51.4137 69.5535 51.0848 69.6765 50.6582H70.882C70.7015 51.3478 70.3407 51.9019 69.7995 52.3205C69.2583 52.7313 68.5817 52.9362 67.7699 52.9362C67.1302 52.9362 66.5603 52.7928 66.0601 52.5052C65.568 52.2176 65.1826 51.8113 64.9038 51.2862C64.6249 50.7611 64.4855 50.1454 64.4855 49.4392ZM75.7214 45.9544C76.2298 45.9544 76.689 46.0653 77.0991 46.2869C77.5091 46.5006 77.8289 46.8243 78.0586 47.2597C78.2963 47.695 78.4153 48.2245 78.4153 48.8481V52.8254H77.3082V49.0082C77.3082 48.3353 77.14 47.8217 76.8039 47.469C76.4676 47.1075 76.0084 46.9272 75.4262 46.9272C74.8357 46.9272 74.3642 47.1119 74.0116 47.4813C73.6672 47.8507 73.495 48.3881 73.495 49.0944V52.8254H72.3756V43.7134H73.495V47.038C73.7164 46.6933 74.0198 46.4268 74.4052 46.2377C74.7988 46.0486 75.2375 45.9544 75.7214 45.9544ZM86.3942 49.1929C86.3942 49.4066 86.3819 49.6318 86.3573 49.8702H80.9696C81.0105 50.5351 81.236 51.0566 81.6461 51.434C82.0643 51.8034 82.5687 51.9881 83.1591 51.9881C83.6429 51.9881 84.0448 51.8773 84.3646 51.6556C84.6926 51.4261 84.9222 51.1217 85.0535 50.7444H86.2589C86.0785 51.3926 85.7177 51.9221 85.1765 52.3329C84.6352 52.7348 83.9627 52.9362 83.1591 52.9362C82.5195 52.9362 81.9454 52.7928 81.437 52.5052C80.9367 52.2176 80.5431 51.8113 80.2561 51.2862C79.9691 50.7523 79.8256 50.1366 79.8256 49.4392C79.8256 48.7417 79.9649 48.1295 80.2438 47.6044C80.5226 47.0794 80.9121 46.6765 81.4124 46.3977C81.9208 46.1101 82.503 45.9667 83.1591 45.9667C83.7988 45.9667 84.3646 46.1066 84.8566 46.3854C85.3487 46.6642 85.7259 47.0503 85.9883 47.5429C86.2589 48.0275 86.3942 48.5772 86.3942 49.1929ZM85.238 48.9589C85.238 48.5324 85.1436 48.1665 84.955 47.863C84.7664 47.5508 84.5081 47.3168 84.1801 47.1612C83.8603 46.9967 83.5035 46.9149 83.1099 46.9149C82.5441 46.9149 82.0602 47.0952 81.6584 47.4567C81.2648 47.8182 81.0392 48.3186 80.9819 48.9589H85.238ZM88.9913 47.1735C89.1881 46.7874 89.4667 46.4883 89.8278 46.2746C90.1968 46.0609 90.6431 45.9544 91.1685 45.9544V47.1119H90.8733C89.6186 47.1119 88.9913 47.7936 88.9913 49.156V52.8254H87.8717V46.0776H88.9913V47.1735ZM94.8465 52.9362C94.3299 52.9362 93.8668 52.85 93.4565 52.6776C93.0471 52.4973 92.7228 52.2511 92.4847 51.9388C92.2475 51.6187 92.1157 51.2537 92.0911 50.8429H93.2474C93.2808 51.1798 93.4363 51.4542 93.7148 51.6679C94.0021 51.8816 94.3756 51.9881 94.8342 51.9881C95.2612 51.9881 95.5969 51.894 95.8429 51.7049C96.0889 51.5158 96.2119 51.2783 96.2119 50.9907C96.2119 50.6952 96.081 50.4779 95.8183 50.3381C95.5564 50.1903 95.1505 50.0469 94.6005 49.9071C94.1005 49.776 93.6902 49.6441 93.3704 49.5131C93.0594 49.3732 92.7887 49.1727 92.5585 48.9097C92.3371 48.6388 92.2264 48.2861 92.2264 47.8507C92.2264 47.5059 92.3292 47.1902 92.5339 46.9026C92.7395 46.615 93.0304 46.3898 93.4073 46.2253C93.7851 46.0529 94.2156 45.9667 94.6989 45.9667C95.4457 45.9667 96.0485 46.1559 96.5071 46.5332C96.9666 46.9105 97.2127 47.4276 97.2452 48.0847H96.1258C96.1012 47.732 95.958 47.4488 95.6953 47.2351C95.4413 47.0213 95.0969 46.9149 94.662 46.9149C94.2605 46.9149 93.9406 47.0011 93.7025 47.1735C93.4653 47.3459 93.3458 47.5719 93.3458 47.8507C93.3458 48.0724 93.4161 48.2571 93.5549 48.4048C93.7025 48.5447 93.8835 48.659 94.0962 48.7496C94.3176 48.8314 94.6216 48.9264 95.0064 49.0328C95.4905 49.1639 95.8842 49.2958 96.1873 49.4268C96.4913 49.55 96.7496 49.7391 96.9623 49.9933C97.1837 50.2475 97.2988 50.5799 97.3067 50.9907C97.3067 51.3601 97.2048 51.6926 96.9992 51.9881C96.7944 52.2836 96.5036 52.5176 96.1258 52.69C95.7568 52.8544 95.3306 52.9362 94.8465 52.9362Z" fill="#A7A6CE"/>
<path d="M270.35 34.1158C270.04 33.5854 269.363 33.5863 269.055 34.1193L265.672 40.1969L264.143 37.7658C263.835 37.2689 263.216 37.2689 262.908 37.7658L258.223 45.1953C258.053 45.4715 258.022 45.84 258.145 46.1531C258.284 46.4663 258.547 46.6686 258.84 46.6686H277.317C277.221 46.4944 270.742 34.8264 270.35 34.1158Z" fill="#FF827A"/>
</svg>
