<svg width="354" height="92" viewBox="0 0 354 92" fill="none" xmlns="http://www.w3.org/2000/svg">
<g clip-path="url(#clip0_108_492)">
<rect width="354" height="92" rx="10" fill="white"/>
<path d="M199.187 47.9199H117.343C111.897 47.9199 107.482 52.4052 107.482 57.9381V81.9816C107.482 87.5145 111.897 91.9998 117.343 91.9998H199.187C204.633 91.9998 209.048 87.5145 209.048 81.9816V57.9381C209.048 52.4052 204.633 47.9199 199.187 47.9199Z" fill="#554DF1"/>
<path d="M18.1348 25.9761C18.1348 24.1381 18.4293 22.7062 19.0183 21.6803C19.6074 20.6437 20.6381 20.1255 22.1106 20.1255C23.5727 20.1255 24.5982 20.6437 25.1872 21.6803C25.7762 22.7062 26.0707 24.1381 26.0707 25.9761C26.0707 27.8462 25.7762 29.2994 25.1872 30.336C24.5982 31.3726 23.5727 31.8908 22.1106 31.8908C20.6381 31.8908 19.6074 31.3726 19.0183 30.336C18.4293 29.2994 18.1348 27.8462 18.1348 25.9761ZM24.6507 25.9761C24.6507 25.0464 24.5876 24.261 24.4614 23.6198C24.3457 22.9679 24.0985 22.4444 23.7199 22.049C23.3518 21.6536 22.8154 21.4559 22.1106 21.4559C21.3954 21.4559 20.8484 21.6536 20.4698 22.049C20.1017 22.4444 19.8545 22.9679 19.7283 23.6198C19.6126 24.261 19.5547 25.0464 19.5547 25.9761C19.5547 26.9378 19.6126 27.7446 19.7283 28.3965C19.8545 29.0484 20.1017 29.5719 20.4698 29.9673C20.8484 30.3627 21.3954 30.5604 22.1106 30.5604C22.8154 30.5604 23.3518 30.3627 23.7199 29.9673C24.0985 29.5719 24.3457 29.0484 24.4614 28.3965C24.5876 27.7446 24.6507 26.9378 24.6507 25.9761ZM30.1243 25.8639C29.5353 25.6288 29.083 25.2868 28.7675 24.838C28.4519 24.3892 28.2942 23.8442 28.2942 23.2031C28.2942 22.626 28.4362 22.1078 28.7202 21.6482C29.0041 21.1781 29.4249 20.8094 29.9823 20.5422C30.5503 20.2644 31.2339 20.1255 32.0334 20.1255C32.8328 20.1255 33.5112 20.2644 34.0686 20.5422C34.6366 20.8094 35.0626 21.1781 35.3466 21.6482C35.6411 22.1078 35.7883 22.626 35.7883 23.2031C35.7883 23.8229 35.6253 24.3679 35.2992 24.838C34.9731 25.2976 34.5261 25.6395 33.9582 25.8639C34.6103 26.067 35.1257 26.4249 35.5043 26.9378C35.8935 27.44 36.0881 28.0491 36.0881 28.7651C36.0881 29.4597 35.9198 30.0688 35.5832 30.5924C35.2467 31.1054 34.768 31.5061 34.1475 31.7946C33.5374 32.0724 32.8328 32.2114 32.0334 32.2114C31.2339 32.2114 30.5293 32.0724 29.9192 31.7946C29.3197 31.5061 28.8516 31.1054 28.515 30.5924C28.1785 30.0688 28.0102 29.4597 28.0102 28.7651C28.0102 28.0491 28.1995 27.4347 28.5782 26.9218C28.9568 26.4089 29.4722 26.0562 30.1243 25.8639ZM34.3999 23.3794C34.3999 22.7275 34.1896 22.2253 33.7688 21.8727C33.3481 21.52 32.7697 21.3437 32.0334 21.3437C31.3076 21.3437 30.7344 21.52 30.3136 21.8727C29.8929 22.2253 29.6826 22.7329 29.6826 23.3954C29.6826 23.9938 29.8982 24.4747 30.3294 24.838C30.7712 25.2014 31.3392 25.383 32.0334 25.383C32.7381 25.383 33.3061 25.2014 33.7373 24.838C34.179 24.464 34.3999 23.9778 34.3999 23.3794ZM32.0334 26.505C31.255 26.505 30.6186 26.6921 30.1243 27.0661C29.63 27.4294 29.3828 27.9797 29.3828 28.7171C29.3828 29.401 29.6195 29.9513 30.0928 30.368C30.5766 30.7848 31.2235 30.9932 32.0334 30.9932C32.8432 30.9932 33.4849 30.7848 33.9582 30.368C34.4315 29.9513 34.6681 29.401 34.6681 28.7171C34.6681 28.0011 34.4263 27.4561 33.9424 27.0821C33.4585 26.6974 32.8222 26.505 32.0334 26.505ZM38.6891 31.987C38.4156 31.987 38.1843 31.8908 37.995 31.6985C37.8056 31.5061 37.711 31.271 37.711 30.9932C37.711 30.7154 37.8056 30.4802 37.995 30.2879C38.1843 30.0955 38.4156 29.9994 38.6891 29.9994C38.952 29.9994 39.1729 30.0955 39.3518 30.2879C39.5411 30.4802 39.6358 30.7154 39.6358 30.9932C39.6358 31.271 39.5411 31.5061 39.3518 31.6985C39.1729 31.8908 38.952 31.987 38.6891 31.987ZM38.6891 25.1265C38.4156 25.1265 38.1843 25.0304 37.995 24.838C37.8056 24.6457 37.711 24.4106 37.711 24.1327C37.711 23.8549 37.8056 23.6198 37.995 23.4275C38.1843 23.2351 38.4156 23.1389 38.6891 23.1389C38.952 23.1389 39.1729 23.2351 39.3518 23.4275C39.5411 23.6198 39.6358 23.8549 39.6358 24.1327C39.6358 24.4106 39.5411 24.6457 39.3518 24.838C39.1729 25.0304 38.952 25.1265 38.6891 25.1265ZM41.3537 25.9761C41.3537 24.1381 41.6483 22.7062 42.2372 21.6803C42.8262 20.6437 43.8571 20.1255 45.3296 20.1255C46.7916 20.1255 47.8171 20.6437 48.4061 21.6803C48.9951 22.7062 49.2896 24.1381 49.2896 25.9761C49.2896 27.8462 48.9951 29.2994 48.4061 30.336C47.8171 31.3726 46.7916 31.8908 45.3296 31.8908C43.8571 31.8908 42.8262 31.3726 42.2372 30.336C41.6483 29.2994 41.3537 27.8462 41.3537 25.9761ZM47.8697 25.9761C47.8697 25.0464 47.8066 24.261 47.6804 23.6198C47.5647 22.9679 47.3175 22.4444 46.9388 22.049C46.5707 21.6536 46.0343 21.4559 45.3296 21.4559C44.6144 21.4559 44.0674 21.6536 43.6887 22.049C43.3206 22.4444 43.0734 22.9679 42.9472 23.6198C42.8315 24.261 42.7737 25.0464 42.7737 25.9761C42.7737 26.9378 42.8315 27.7446 42.9472 28.3965C43.0734 29.0484 43.3206 29.5719 43.6887 29.9673C44.0674 30.3627 44.6144 30.5604 45.3296 30.5604C46.0343 30.5604 46.5707 30.3627 46.9388 29.9673C47.3175 29.5719 47.5647 29.0484 47.6804 28.3965C47.8066 27.7446 47.8697 26.9378 47.8697 25.9761ZM51.2607 25.9761C51.2607 24.1381 51.5552 22.7062 52.1442 21.6803C52.7332 20.6437 53.764 20.1255 55.2365 20.1255C56.6986 20.1255 57.7241 20.6437 58.3131 21.6803C58.9021 22.7062 59.1966 24.1381 59.1966 25.9761C59.1966 27.8462 58.9021 29.2994 58.3131 30.336C57.7241 31.3726 56.6986 31.8908 55.2365 31.8908C53.764 31.8908 52.7332 31.3726 52.1442 30.336C51.5552 29.2994 51.2607 27.8462 51.2607 25.9761ZM57.7766 25.9761C57.7766 25.0464 57.7135 24.261 57.5873 23.6198C57.4717 22.9679 57.2244 22.4444 56.8458 22.049C56.4777 21.6536 55.9413 21.4559 55.2365 21.4559C54.5213 21.4559 53.9744 21.6536 53.5957 22.049C53.2276 22.4444 52.9804 22.9679 52.8542 23.6198C52.7385 24.261 52.6806 25.0464 52.6806 25.9761C52.6806 26.9378 52.7385 27.7446 52.8542 28.3965C52.9804 29.0484 53.2276 29.5719 53.5957 29.9673C53.9744 30.3627 54.5213 30.5604 55.2365 30.5604C55.9413 30.5604 56.4777 30.3627 56.8458 29.9673C57.2244 29.5719 57.4717 29.0484 57.5873 28.3965C57.7135 27.7446 57.7766 26.9378 57.7766 25.9761ZM65.0741 27.4668C65.0741 26.5692 65.2528 25.7837 65.6105 25.1105C65.9681 24.4266 66.4572 23.8976 67.0778 23.5236C67.7089 23.1497 68.4083 22.9626 69.1761 22.9626C69.9334 22.9626 70.5909 23.1282 71.1483 23.4595C71.7057 23.7908 72.1212 24.2076 72.3947 24.7098V23.1069H73.8462V31.8908H72.3947V30.2558C72.1107 30.7688 71.6847 31.1962 71.1167 31.5382C70.5593 31.8695 69.9071 32.0351 69.1604 32.0351C68.3925 32.0351 67.6983 31.8427 67.0778 31.458C66.4572 31.0733 65.9681 30.5336 65.6105 29.8391C65.2528 29.1445 65.0741 28.3537 65.0741 27.4668ZM72.3947 27.4828C72.3947 26.8203 72.2632 26.2433 72.0003 25.7517C71.7373 25.2601 71.3797 24.8861 70.9274 24.6296C70.4856 24.3625 69.9965 24.2289 69.4601 24.2289C68.9237 24.2289 68.4346 24.3572 67.9929 24.6136C67.5511 24.8701 67.1988 25.2441 66.9358 25.7356C66.6728 26.2272 66.5414 26.8043 66.5414 27.4668C66.5414 28.14 66.6728 28.7278 66.9358 29.23C67.1988 29.7216 67.5511 30.1009 67.9929 30.368C68.4346 30.6245 68.9237 30.7527 69.4601 30.7527C69.9965 30.7527 70.4856 30.6245 70.9274 30.368C71.3797 30.1009 71.7373 29.7216 72.0003 29.23C72.2632 28.7278 72.3947 28.1453 72.3947 27.4828ZM86.6696 22.9466C87.3428 22.9466 87.9423 23.0909 88.4681 23.3794C88.994 23.6572 89.4096 24.0794 89.7146 24.6457C90.0195 25.212 90.1721 25.9013 90.1721 26.7134V31.8908H88.7521V26.9218C88.7521 26.0455 88.5365 25.3777 88.1053 24.9182C87.6845 24.448 87.1113 24.2129 86.3856 24.2129C85.6388 24.2129 85.0445 24.4586 84.6027 24.9502C84.161 25.4311 83.9401 26.1311 83.9401 27.05V31.8908H82.5202V26.9218C82.5202 26.0455 82.3045 25.3777 81.8733 24.9182C81.4525 24.448 80.8793 24.2129 80.1536 24.2129C79.4068 24.2129 78.8125 24.4586 78.3708 24.9502C77.929 25.4311 77.7081 26.1311 77.7081 27.05V31.8908H76.2724V23.1069H77.7081V24.3732C77.9921 23.9136 78.3708 23.561 78.8441 23.3153C79.3279 23.0695 79.859 22.9466 80.4376 22.9466C81.1633 22.9466 81.805 23.1122 82.3624 23.4435C82.9198 23.7748 83.3354 24.261 83.6088 24.9021C83.8507 24.2823 84.2504 23.8014 84.8079 23.4595C85.3653 23.1176 85.9859 22.9466 86.6696 22.9466Z" fill="#191D3A"/>
<path d="M122.482 25.9763C122.482 24.1383 122.776 22.7064 123.366 21.6805C123.955 20.644 124.985 20.1257 126.458 20.1257C127.92 20.1257 128.945 20.644 129.535 21.6805C130.124 22.7064 130.418 24.1383 130.418 25.9763C130.418 27.8464 130.124 29.2996 129.535 30.3362C128.945 31.3728 127.92 31.891 126.458 31.891C124.985 31.891 123.955 31.3728 123.366 30.3362C122.776 29.2996 122.482 27.8464 122.482 25.9763ZM128.998 25.9763C128.998 25.0466 128.935 24.2612 128.809 23.6201C128.693 22.9682 128.446 22.4446 128.068 22.0492C127.699 21.6538 127.162 21.4561 126.458 21.4561C125.742 21.4561 125.196 21.6538 124.817 22.0492C124.449 22.4446 124.202 22.9682 124.076 23.6201C123.96 24.2612 123.902 25.0466 123.902 25.9763C123.902 26.9381 123.96 27.7448 124.076 28.3967C124.202 29.0486 124.449 29.5721 124.817 29.9676C125.196 30.363 125.742 30.5606 126.458 30.5606C127.162 30.5606 127.699 30.363 128.068 29.9676C128.446 29.5721 128.693 29.0486 128.809 28.3967C128.935 27.7448 128.998 26.9381 128.998 25.9763ZM134.235 28.7814C134.34 29.3905 134.583 29.8607 134.961 30.192C135.35 30.5233 135.87 30.6889 136.523 30.6889C137.396 30.6889 138.038 30.3415 138.448 29.647C138.868 28.9524 139.068 27.7823 139.047 26.1366C138.827 26.6175 138.458 26.9969 137.943 27.2747C137.427 27.5419 136.854 27.6754 136.223 27.6754C135.518 27.6754 134.887 27.5311 134.33 27.2426C133.783 26.9434 133.352 26.5106 133.036 25.9443C132.721 25.3779 132.563 24.694 132.563 23.8925C132.563 22.7492 132.888 21.8301 133.541 21.1356C134.193 20.4303 135.119 20.0776 136.318 20.0776C137.79 20.0776 138.821 20.5638 139.41 21.5363C140.01 22.5087 140.31 23.9567 140.31 25.8802C140.31 27.2266 140.188 28.3379 139.947 29.2142C139.715 30.0905 139.316 30.7583 138.748 31.2178C138.19 31.6774 137.422 31.9071 136.444 31.9071C135.371 31.9071 134.535 31.6132 133.936 31.0255C133.336 30.4377 132.994 29.6898 132.91 28.7814H134.235ZM136.46 26.4412C137.164 26.4412 137.743 26.2221 138.195 25.784C138.647 25.3352 138.874 24.7314 138.874 23.9727C138.874 23.1712 138.653 22.5248 138.211 22.0332C137.77 21.5416 137.148 21.2958 136.35 21.2958C135.613 21.2958 135.024 21.531 134.583 22.0011C134.151 22.4713 133.936 23.0911 133.936 23.8605C133.936 24.6406 134.151 25.2657 134.583 25.7359C135.013 26.206 135.64 26.4412 136.46 26.4412ZM143.021 31.9872C142.747 31.9872 142.516 31.891 142.327 31.6987C142.138 31.5063 142.043 31.2712 142.043 30.9934C142.043 30.7156 142.138 30.4805 142.327 30.2881C142.516 30.0958 142.747 29.9996 143.021 29.9996C143.284 29.9996 143.505 30.0958 143.684 30.2881C143.873 30.4805 143.968 30.7156 143.968 30.9934C143.968 31.2712 143.873 31.5063 143.684 31.6987C143.505 31.891 143.284 31.9872 143.021 31.9872ZM143.021 25.1268C142.747 25.1268 142.516 25.0306 142.327 24.8383C142.138 24.6459 142.043 24.4108 142.043 24.133C142.043 23.8552 142.138 23.6201 142.327 23.4277C142.516 23.2354 142.747 23.1392 143.021 23.1392C143.284 23.1392 143.505 23.2354 143.684 23.4277C143.873 23.6201 143.968 23.8552 143.968 24.133C143.968 24.4108 143.873 24.6459 143.684 24.8383C143.505 25.0306 143.284 25.1268 143.021 25.1268ZM145.654 23.2193C145.728 22.2362 146.101 21.4669 146.774 20.9111C147.448 20.3554 148.32 20.0776 149.393 20.0776C150.108 20.0776 150.724 20.2112 151.239 20.4784C151.765 20.7348 152.159 21.0875 152.423 21.5363C152.696 21.9851 152.833 22.4927 152.833 23.059C152.833 23.7215 152.643 24.2933 152.265 24.7741C151.897 25.255 151.413 25.5649 150.813 25.7038V25.784C151.497 25.955 152.039 26.2916 152.438 26.7938C152.838 27.296 153.038 27.9532 153.038 28.7654C153.038 29.3745 152.901 29.9248 152.628 30.4164C152.355 30.8972 151.944 31.2766 151.397 31.5544C150.85 31.8322 150.193 31.9712 149.425 31.9712C148.31 31.9712 147.395 31.6774 146.68 31.0896C145.965 30.4912 145.564 29.647 145.481 28.557H146.869C146.943 29.1982 147.2 29.7218 147.642 30.1278C148.084 30.5339 148.673 30.7369 149.409 30.7369C150.146 30.7369 150.703 30.5446 151.081 30.1599C151.471 29.7645 151.665 29.257 151.665 28.6371C151.665 27.8357 151.402 27.2586 150.876 26.906C150.351 26.5534 149.556 26.377 148.494 26.377H148.131V25.1588H148.51C149.477 25.1481 150.209 24.9878 150.703 24.678C151.197 24.3574 151.444 23.8658 151.444 23.2033C151.444 22.637 151.26 22.1827 150.892 21.8408C150.534 21.4989 150.019 21.3279 149.346 21.3279C148.694 21.3279 148.168 21.4989 147.768 21.8408C147.369 22.1827 147.132 22.6423 147.058 23.2193H145.654ZM154.976 25.9763C154.976 24.1383 155.271 22.7064 155.86 21.6805C156.449 20.644 157.48 20.1257 158.952 20.1257C160.415 20.1257 161.44 20.644 162.029 21.6805C162.618 22.7064 162.912 24.1383 162.912 25.9763C162.912 27.8464 162.618 29.2996 162.029 30.3362C161.44 31.3728 160.415 31.891 158.952 31.891C157.48 31.891 156.449 31.3728 155.86 30.3362C155.271 29.2996 154.976 27.8464 154.976 25.9763ZM161.492 25.9763C161.492 25.0466 161.429 24.2612 161.303 23.6201C161.188 22.9682 160.94 22.4446 160.562 22.0492C160.194 21.6538 159.657 21.4561 158.952 21.4561C158.237 21.4561 157.69 21.6538 157.311 22.0492C156.944 22.4446 156.696 22.9682 156.57 23.6201C156.455 24.2612 156.396 25.0466 156.396 25.9763C156.396 26.9381 156.455 27.7448 156.57 28.3967C156.696 29.0486 156.944 29.5721 157.311 29.9676C157.69 30.363 158.237 30.5606 158.952 30.5606C159.657 30.5606 160.194 30.363 160.562 29.9676C160.94 29.5721 161.188 29.0486 161.303 28.3967C161.429 27.7448 161.492 26.9381 161.492 25.9763ZM168.789 27.467C168.789 26.5694 168.969 25.784 169.326 25.1108C169.684 24.4268 170.173 23.8979 170.793 23.5239C171.424 23.1499 172.124 22.9629 172.891 22.9629C173.649 22.9629 174.306 23.1285 174.864 23.4598C175.422 23.7911 175.837 24.2078 176.11 24.71V23.1071H177.561V31.891H176.11V30.2561C175.826 30.769 175.4 31.1965 174.832 31.5384C174.275 31.8697 173.623 32.0353 172.876 32.0353C172.108 32.0353 171.414 31.843 170.793 31.4583C170.173 31.0736 169.684 30.5339 169.326 29.8393C168.969 29.1448 168.789 28.3539 168.789 27.467ZM176.11 27.4831C176.11 26.8206 175.979 26.2435 175.716 25.7519C175.453 25.2603 175.095 24.8863 174.643 24.6299C174.201 24.3627 173.712 24.2292 173.175 24.2292C172.639 24.2292 172.15 24.3574 171.708 24.6139C171.266 24.8703 170.914 25.2443 170.651 25.7359C170.389 26.2275 170.257 26.8045 170.257 27.467C170.257 28.1402 170.389 28.728 170.651 29.2302C170.914 29.7218 171.266 30.1011 171.708 30.3683C172.15 30.6247 172.639 30.753 173.175 30.753C173.712 30.753 174.201 30.6247 174.643 30.3683C175.095 30.1011 175.453 29.7218 175.716 29.2302C175.979 28.728 176.11 28.1456 176.11 27.4831ZM190.385 22.9468C191.059 22.9468 191.658 23.0911 192.184 23.3796C192.71 23.6574 193.126 24.0796 193.43 24.6459C193.735 25.2122 193.888 25.9015 193.888 26.7137V31.891H192.468V26.922C192.468 26.0458 192.252 25.3779 191.821 24.9184C191.4 24.4483 190.827 24.2131 190.101 24.2131C189.355 24.2131 188.76 24.4589 188.319 24.9505C187.877 25.4313 187.656 26.1313 187.656 27.0503V31.891H186.236V26.922C186.236 26.0458 186.02 25.3779 185.589 24.9184C185.168 24.4483 184.595 24.2131 183.869 24.2131C183.123 24.2131 182.528 24.4589 182.087 24.9505C181.645 25.4313 181.424 26.1313 181.424 27.0503V31.891H179.988V23.1071H181.424V24.3734C181.708 23.9139 182.087 23.5612 182.56 23.3155C183.044 23.0698 183.575 22.9468 184.153 22.9468C184.879 22.9468 185.521 23.1124 186.078 23.4437C186.635 23.775 187.051 24.2612 187.325 24.9024C187.566 24.2826 187.967 23.8017 188.524 23.4598C189.081 23.1178 189.702 22.9468 190.385 22.9468Z" fill="#191D3A"/>
<path d="M227.697 21.6325V20.3021H230.663V31.8911H229.212V21.6325H227.697ZM232.956 30.721C234.291 29.631 235.338 28.7387 236.096 28.0442C236.853 27.3389 237.489 26.6068 238.005 25.8482C238.53 25.0788 238.794 24.3254 238.794 23.5881C238.794 22.8935 238.625 22.3485 238.289 21.9531C237.962 21.5471 237.431 21.344 236.695 21.344C235.979 21.344 235.422 21.5737 235.023 22.0333C234.633 22.4821 234.423 23.0859 234.392 23.8445H233.003C233.045 22.6477 233.403 21.7234 234.076 21.0715C234.749 20.4196 235.616 20.0938 236.679 20.0938C237.762 20.0938 238.62 20.3983 239.251 21.0074C239.892 21.6165 240.213 22.4553 240.213 23.524C240.213 24.4109 239.95 25.2764 239.425 26.1207C238.909 26.9542 238.32 27.6915 237.658 28.3327C236.995 28.9631 236.148 29.7004 235.117 30.5447H240.545V31.7629H232.956V30.721ZM242.899 31.9873C242.624 31.9873 242.394 31.8911 242.204 31.6988C242.015 31.5064 241.92 31.2713 241.92 30.9935C241.92 30.7157 242.015 30.4806 242.204 30.2882C242.394 30.0959 242.624 29.9997 242.899 29.9997C243.161 29.9997 243.382 30.0959 243.561 30.2882C243.751 30.4806 243.845 30.7157 243.845 30.9935C243.845 31.2713 243.751 31.5064 243.561 31.6988C243.382 31.8911 243.161 31.9873 242.899 31.9873ZM242.899 25.1269C242.624 25.1269 242.394 25.0307 242.204 24.8383C242.015 24.646 241.92 24.4109 241.92 24.1331C241.92 23.8553 242.015 23.6201 242.204 23.4278C242.394 23.2354 242.624 23.1393 242.899 23.1393C243.161 23.1393 243.382 23.2354 243.561 23.4278C243.751 23.6201 243.845 23.8553 243.845 24.1331C243.845 24.4109 243.751 24.646 243.561 24.8383C243.382 25.0307 243.161 25.1269 242.899 25.1269ZM245.563 25.9764C245.563 24.1384 245.858 22.7065 246.446 21.6806C247.035 20.644 248.067 20.1258 249.539 20.1258C251.001 20.1258 252.027 20.644 252.615 21.6806C253.204 22.7065 253.499 24.1384 253.499 25.9764C253.499 27.8465 253.204 29.2997 252.615 30.3363C252.027 31.3729 251.001 31.8911 249.539 31.8911C248.067 31.8911 247.035 31.3729 246.446 30.3363C245.858 29.2997 245.563 27.8465 245.563 25.9764ZM252.079 25.9764C252.079 25.0467 252.016 24.2613 251.89 23.6201C251.774 22.9683 251.527 22.4447 251.148 22.0493C250.78 21.6539 250.244 21.4562 249.539 21.4562C248.824 21.4562 248.277 21.6539 247.898 22.0493C247.53 22.4447 247.283 22.9683 247.156 23.6201C247.041 24.2613 246.983 25.0467 246.983 25.9764C246.983 26.9381 247.041 27.7449 247.156 28.3968C247.283 29.0487 247.53 29.5722 247.898 29.9676C248.277 30.3631 248.824 30.5607 249.539 30.5607C250.244 30.5607 250.78 30.3631 251.148 29.9676C251.527 29.5722 251.774 29.0487 251.89 28.3968C252.016 27.7449 252.079 26.9381 252.079 25.9764ZM255.47 25.9764C255.47 24.1384 255.765 22.7065 256.354 21.6806C256.942 20.644 257.974 20.1258 259.446 20.1258C260.908 20.1258 261.934 20.644 262.522 21.6806C263.111 22.7065 263.406 24.1384 263.406 25.9764C263.406 27.8465 263.111 29.2997 262.522 30.3363C261.934 31.3729 260.908 31.8911 259.446 31.8911C257.974 31.8911 256.942 31.3729 256.354 30.3363C255.765 29.2997 255.47 27.8465 255.47 25.9764ZM261.986 25.9764C261.986 25.0467 261.923 24.2613 261.797 23.6201C261.681 22.9683 261.434 22.4447 261.055 22.0493C260.687 21.6539 260.151 21.4562 259.446 21.4562C258.731 21.4562 258.184 21.6539 257.805 22.0493C257.437 22.4447 257.19 22.9683 257.063 23.6201C256.948 24.2613 256.89 25.0467 256.89 25.9764C256.89 26.9381 256.948 27.7449 257.063 28.3968C257.19 29.0487 257.437 29.5722 257.805 29.9676C258.184 30.3631 258.731 30.5607 259.446 30.5607C260.151 30.5607 260.687 30.3631 261.055 29.9676C261.434 29.5722 261.681 29.0487 261.797 28.3968C261.923 27.7449 261.986 26.9381 261.986 25.9764ZM269.283 27.4671C269.283 26.5695 269.462 25.7841 269.819 25.1108C270.177 24.4269 270.666 23.8979 271.287 23.524C271.918 23.15 272.618 22.9629 273.385 22.9629C274.142 22.9629 274.8 23.1285 275.357 23.4598C275.915 23.7911 276.33 24.2079 276.604 24.7101V23.1072H278.055V31.8911H276.604V30.2562C276.32 30.7691 275.894 31.1966 275.326 31.5385C274.768 31.8698 274.117 32.0354 273.369 32.0354C272.602 32.0354 271.908 31.843 271.287 31.4583C270.666 31.0736 270.177 30.534 269.819 29.8394C269.462 29.1448 269.283 28.354 269.283 27.4671ZM276.604 27.4831C276.604 26.8206 276.472 26.2436 276.209 25.752C275.947 25.2604 275.589 24.8864 275.136 24.63C274.694 24.3628 274.205 24.2292 273.669 24.2292C273.133 24.2292 272.643 24.3575 272.202 24.6139C271.76 24.8704 271.408 25.2444 271.145 25.736C270.882 26.2276 270.75 26.8046 270.75 27.4671C270.75 28.1403 270.882 28.7281 271.145 29.2303C271.408 29.7219 271.76 30.1012 272.202 30.3684C272.643 30.6248 273.133 30.7531 273.669 30.7531C274.205 30.7531 274.694 30.6248 275.136 30.3684C275.589 30.1012 275.947 29.7219 276.209 29.2303C276.472 28.7281 276.604 28.1456 276.604 27.4831ZM290.879 22.9469C291.552 22.9469 292.152 23.0912 292.677 23.3797C293.203 23.6575 293.619 24.0797 293.924 24.646C294.229 25.2123 294.381 25.9016 294.381 26.7137V31.8911H292.961V26.9221C292.961 26.0458 292.746 25.378 292.315 24.9185C291.894 24.4483 291.321 24.2132 290.595 24.2132C289.848 24.2132 289.254 24.459 288.812 24.9505C288.37 25.4314 288.149 26.1314 288.149 27.0504V31.8911H286.729V26.9221C286.729 26.0458 286.514 25.378 286.083 24.9185C285.662 24.4483 285.089 24.2132 284.363 24.2132C283.616 24.2132 283.022 24.459 282.58 24.9505C282.138 25.4314 281.917 26.1314 281.917 27.0504V31.8911H280.482V23.1072H281.917V24.3735C282.201 23.914 282.58 23.5613 283.053 23.3156C283.538 23.0698 284.068 22.9469 284.647 22.9469C285.373 22.9469 286.015 23.1125 286.572 23.4438C287.129 23.7751 287.545 24.2613 287.818 24.9025C288.06 24.2826 288.46 23.8018 289.017 23.4598C289.574 23.1179 290.196 22.9469 290.879 22.9469Z" fill="#191D3A"/>
<path d="M329.717 25.9761C329.717 24.1381 330.011 22.7062 330.6 21.6803C331.189 20.6437 332.219 20.1255 333.693 20.1255C335.154 20.1255 336.18 20.6437 336.769 21.6803C337.358 22.7062 337.653 24.1381 337.653 25.9761C337.653 27.8462 337.358 29.2994 336.769 30.336C336.18 31.3726 335.154 31.8908 333.693 31.8908C332.219 31.8908 331.189 31.3726 330.6 30.336C330.011 29.2994 329.717 27.8462 329.717 25.9761ZM336.233 25.9761C336.233 25.0464 336.17 24.261 336.043 23.6198C335.927 22.9679 335.681 22.4444 335.302 22.049C334.933 21.6536 334.397 21.4559 333.693 21.4559C332.977 21.4559 332.43 21.6536 332.052 22.049C331.683 22.4444 331.437 22.9679 331.31 23.6198C331.194 24.261 331.137 25.0464 331.137 25.9761C331.137 26.9378 331.194 27.7446 331.31 28.3965C331.437 29.0484 331.683 29.5719 332.052 29.9673C332.43 30.3627 332.977 30.5604 333.693 30.5604C334.397 30.5604 334.933 30.3627 335.302 29.9673C335.681 29.5719 335.927 29.0484 336.043 28.3965C336.17 27.7446 336.233 26.9378 336.233 25.9761ZM339.245 21.6322V20.3018H342.211V31.8908H340.76V21.6322H339.245ZM345.372 31.987C345.098 31.987 344.867 31.8908 344.677 31.6984C344.488 31.5061 344.393 31.271 344.393 30.9932C344.393 30.7154 344.488 30.4802 344.677 30.2879C344.867 30.0955 345.098 29.9994 345.372 29.9994C345.634 29.9994 345.855 30.0955 346.034 30.2879C346.224 30.4802 346.318 30.7154 346.318 30.9932C346.318 31.271 346.224 31.5061 346.034 31.6984C345.855 31.8908 345.634 31.987 345.372 31.987ZM345.372 25.1265C345.098 25.1265 344.867 25.0304 344.677 24.838C344.488 24.6457 344.393 24.4106 344.393 24.1327C344.393 23.8549 344.488 23.6198 344.677 23.4275C344.867 23.2351 345.098 23.1389 345.372 23.1389C345.634 23.1389 345.855 23.2351 346.034 23.4275C346.224 23.6198 346.318 23.8549 346.318 24.1327C346.318 24.4106 346.224 24.6457 346.034 24.838C345.855 25.0304 345.634 25.1265 345.372 25.1265ZM348.036 25.9761C348.036 24.1381 348.331 22.7062 348.92 21.6803C349.508 20.6437 350.54 20.1255 352.012 20.1255C353.474 20.1255 354.5 20.6437 355.088 21.6803C355.677 22.7062 355.972 24.1381 355.972 25.9761C355.972 27.8462 355.677 29.2994 355.088 30.336C354.5 31.3726 353.474 31.8908 352.012 31.8908C350.54 31.8908 349.508 31.3726 348.92 30.336C348.331 29.2994 348.036 27.8462 348.036 25.9761ZM354.552 25.9761C354.552 25.0464 354.489 24.261 354.363 23.6198C354.247 22.9679 354 22.4444 353.621 22.049C353.253 21.6536 352.717 21.4559 352.012 21.4559C351.297 21.4559 350.75 21.6536 350.371 22.049C350.003 22.4444 349.756 22.9679 349.63 23.6198C349.514 24.261 349.456 25.0464 349.456 25.9761C349.456 26.9378 349.514 27.7446 349.63 28.3965C349.756 29.0484 350.003 29.5719 350.371 29.9673C350.75 30.3627 351.297 30.5604 352.012 30.5604C352.717 30.5604 353.253 30.3627 353.621 29.9673C354 29.5719 354.247 29.0484 354.363 28.3965C354.489 27.7446 354.552 26.9378 354.552 25.9761ZM357.943 25.9761C357.943 24.1381 358.237 22.7062 358.827 21.6803C359.415 20.6437 360.446 20.1255 361.919 20.1255C363.38 20.1255 364.406 20.6437 364.996 21.6803C365.584 22.7062 365.879 24.1381 365.879 25.9761C365.879 27.8462 365.584 29.2994 364.996 30.336C364.406 31.3726 363.38 31.8908 361.919 31.8908C360.446 31.8908 359.415 31.3726 358.827 30.336C358.237 29.2994 357.943 27.8462 357.943 25.9761ZM364.459 25.9761C364.459 25.0464 364.396 24.261 364.27 23.6198C364.153 22.9679 363.907 22.4444 363.528 22.049C363.159 21.6536 362.623 21.4559 361.919 21.4559C361.203 21.4559 360.657 21.6536 360.278 22.049C359.909 22.4444 359.663 22.9679 359.537 23.6198C359.42 24.261 359.363 25.0464 359.363 25.9761C359.363 26.9378 359.42 27.7446 359.537 28.3965C359.663 29.0484 359.909 29.5719 360.278 29.9673C360.657 30.3627 361.203 30.5604 361.919 30.5604C362.623 30.5604 363.159 30.3627 363.528 29.9673C363.907 29.5719 364.153 29.0484 364.27 28.3965C364.396 27.7446 364.459 26.9378 364.459 25.9761ZM371.756 27.4668C371.756 26.5692 371.935 25.7837 372.292 25.1105C372.65 24.4266 373.139 23.8976 373.76 23.5236C374.391 23.1497 375.091 22.9626 375.858 22.9626C376.615 22.9626 377.273 23.1282 377.83 23.4595C378.388 23.7908 378.803 24.2076 379.077 24.7098V23.1069H380.528V31.8908H379.077V30.2558C378.793 30.7688 378.367 31.1962 377.799 31.5382C377.242 31.8695 376.59 32.0351 375.842 32.0351C375.075 32.0351 374.381 31.8427 373.76 31.458C373.139 31.0733 372.65 30.5336 372.292 29.8391C371.935 29.1445 371.756 28.3537 371.756 27.4668ZM379.077 27.4828C379.077 26.8203 378.945 26.2433 378.682 25.7517C378.42 25.2601 378.062 24.8861 377.609 24.6296C377.168 24.3625 376.678 24.2289 376.142 24.2289C375.606 24.2289 375.117 24.3572 374.675 24.6136C374.233 24.8701 373.881 25.2441 373.618 25.7356C373.355 26.2272 373.223 26.8043 373.223 27.4668C373.223 28.14 373.355 28.7278 373.618 29.23C373.881 29.7216 374.233 30.1009 374.675 30.368C375.117 30.6245 375.606 30.7527 376.142 30.7527C376.678 30.7527 377.168 30.6245 377.609 30.368C378.062 30.1009 378.42 29.7216 378.682 29.23C378.945 28.7278 379.077 28.1453 379.077 27.4828ZM393.352 22.9466C394.024 22.9466 394.624 23.0909 395.151 23.3794C395.676 23.6572 396.091 24.0794 396.397 24.6457C396.702 25.212 396.854 25.9013 396.854 26.7134V31.8908H395.435V26.9218C395.435 26.0455 395.219 25.3777 394.788 24.9182C394.367 24.448 393.794 24.2129 393.068 24.2129C392.321 24.2129 391.727 24.4586 391.285 24.9502C390.843 25.4311 390.623 26.1311 390.623 27.05V31.8908H389.203V26.9218C389.203 26.0455 388.987 25.3777 388.556 24.9182C388.135 24.448 387.562 24.2129 386.836 24.2129C386.089 24.2129 385.495 24.4586 385.053 24.9502C384.611 25.4311 384.391 26.1311 384.391 27.05V31.8908H382.955V23.1069H384.391V24.3732C384.675 23.9136 385.053 23.561 385.526 23.3153C386.01 23.0695 386.541 22.9466 387.12 22.9466C387.846 22.9466 388.487 23.1122 389.045 23.4435C389.602 23.7748 390.017 24.261 390.291 24.9021C390.533 24.2823 390.932 23.8014 391.49 23.4595C392.047 23.1176 392.668 22.9466 393.352 22.9466Z" fill="#191D3A"/>
<path d="M18.1348 70.0562C18.1348 68.2181 18.4293 66.7862 19.0183 65.7604C19.6074 64.7238 20.6381 64.2056 22.1106 64.2056C23.5727 64.2056 24.5982 64.7238 25.1872 65.7604C25.7762 66.7862 26.0707 68.2181 26.0707 70.0562C26.0707 71.9263 25.7762 73.3795 25.1872 74.4161C24.5982 75.4526 23.5727 75.9709 22.1106 75.9709C20.6381 75.9709 19.6074 75.4526 19.0183 74.4161C18.4293 73.3795 18.1348 71.9263 18.1348 70.0562ZM24.6507 70.0562C24.6507 69.1265 24.5876 68.3411 24.4614 67.6999C24.3457 67.048 24.0985 66.5245 23.7199 66.1291C23.3518 65.7336 22.8154 65.536 22.1106 65.536C21.3954 65.536 20.8484 65.7336 20.4698 66.1291C20.1017 66.5245 19.8545 67.048 19.7283 67.6999C19.6126 68.3411 19.5547 69.1265 19.5547 70.0562C19.5547 71.0179 19.6126 71.8247 19.7283 72.4766C19.8545 73.1284 20.1017 73.652 20.4698 74.0474C20.8484 74.4428 21.3954 74.6405 22.1106 74.6405C22.8154 74.6405 23.3518 74.4428 23.7199 74.0474C24.0985 73.652 24.3457 73.1284 24.4614 72.4766C24.5876 71.8247 24.6507 71.0179 24.6507 70.0562ZM30.1243 69.944C29.5353 69.7088 29.083 69.3669 28.7675 68.9181C28.4519 68.4693 28.2942 67.9243 28.2942 67.2831C28.2942 66.7061 28.4362 66.1879 28.7202 65.7283C29.0041 65.2582 29.4249 64.8895 29.9823 64.6223C30.5503 64.3445 31.2339 64.2056 32.0334 64.2056C32.8328 64.2056 33.5112 64.3445 34.0686 64.6223C34.6366 64.8895 35.0626 65.2582 35.3466 65.7283C35.6411 66.1879 35.7883 66.7061 35.7883 67.2831C35.7883 67.903 35.6253 68.448 35.2992 68.9181C34.9731 69.3776 34.5261 69.7196 33.9582 69.944C34.6103 70.147 35.1257 70.505 35.5043 71.0179C35.8935 71.5201 36.0881 72.1292 36.0881 72.8452C36.0881 73.5398 35.9198 74.1489 35.5832 74.6725C35.2467 75.1855 34.768 75.5862 34.1475 75.8747C33.5374 76.1522 32.8328 76.2915 32.0334 76.2915C31.2339 76.2915 30.5293 76.1522 29.9192 75.8747C29.3197 75.5862 28.8516 75.1855 28.515 74.6725C28.1785 74.1489 28.0102 73.5398 28.0102 72.8452C28.0102 72.1292 28.1995 71.5148 28.5782 71.0019C28.9568 70.489 29.4722 70.1363 30.1243 69.944ZM34.3999 67.4595C34.3999 66.8076 34.1896 66.3054 33.7688 65.9527C33.3481 65.6001 32.7697 65.4238 32.0334 65.4238C31.3076 65.4238 30.7344 65.6001 30.3136 65.9527C29.8929 66.3054 29.6826 66.813 29.6826 67.4755C29.6826 68.0739 29.8982 68.5547 30.3294 68.9181C30.7712 69.2815 31.3392 69.4631 32.0334 69.4631C32.7381 69.4631 33.3061 69.2815 33.7373 68.9181C34.179 68.5441 34.3999 68.0578 34.3999 67.4595ZM32.0334 70.5851C31.255 70.5851 30.6186 70.7722 30.1243 71.1461C29.63 71.5095 29.3828 72.0598 29.3828 72.7971C29.3828 73.4811 29.6195 74.0314 30.0928 74.4481C30.5766 74.8649 31.2235 75.0733 32.0334 75.0733C32.8432 75.0733 33.4849 74.8649 33.9582 74.4481C34.4315 74.0314 34.6681 73.4811 34.6681 72.7971C34.6681 72.0811 34.4263 71.5361 33.9424 71.1622C33.4585 70.7775 32.8222 70.5851 32.0334 70.5851ZM38.6891 76.0671C38.4156 76.0671 38.1843 75.9709 37.995 75.7785C37.8056 75.5862 37.711 75.3511 37.711 75.0733C37.711 74.7955 37.8056 74.5603 37.995 74.368C38.1843 74.1756 38.4156 74.0795 38.6891 74.0795C38.952 74.0795 39.1729 74.1756 39.3518 74.368C39.5411 74.5603 39.6358 74.7955 39.6358 75.0733C39.6358 75.3511 39.5411 75.5862 39.3518 75.7785C39.1729 75.9709 38.952 76.0671 38.6891 76.0671ZM38.6891 69.2066C38.4156 69.2066 38.1843 69.1105 37.995 68.9181C37.8056 68.7258 37.711 68.4906 37.711 68.2128C37.711 67.935 37.8056 67.6999 37.995 67.5076C38.1843 67.3152 38.4156 67.219 38.6891 67.219C38.952 67.219 39.1729 67.3152 39.3518 67.5076C39.5411 67.6999 39.6358 67.935 39.6358 68.2128C39.6358 68.4906 39.5411 68.7258 39.3518 68.9181C39.1729 69.1105 38.952 69.2066 38.6891 69.2066ZM41.3537 70.0562C41.3537 68.2181 41.6483 66.7862 42.2372 65.7604C42.8262 64.7238 43.8571 64.2056 45.3296 64.2056C46.7916 64.2056 47.8171 64.7238 48.4061 65.7604C48.9951 66.7862 49.2896 68.2181 49.2896 70.0562C49.2896 71.9263 48.9951 73.3795 48.4061 74.4161C47.8171 75.4526 46.7916 75.9709 45.3296 75.9709C43.8571 75.9709 42.8262 75.4526 42.2372 74.4161C41.6483 73.3795 41.3537 71.9263 41.3537 70.0562ZM47.8697 70.0562C47.8697 69.1265 47.8066 68.3411 47.6804 67.6999C47.5647 67.048 47.3175 66.5245 46.9388 66.1291C46.5707 65.7336 46.0343 65.536 45.3296 65.536C44.6144 65.536 44.0674 65.7336 43.6887 66.1291C43.3206 66.5245 43.0734 67.048 42.9472 67.6999C42.8315 68.3411 42.7737 69.1265 42.7737 70.0562C42.7737 71.0179 42.8315 71.8247 42.9472 72.4766C43.0734 73.1284 43.3206 73.652 43.6887 74.0474C44.0674 74.4428 44.6144 74.6405 45.3296 74.6405C46.0343 74.6405 46.5707 74.4428 46.9388 74.0474C47.3175 73.652 47.5647 73.1284 47.6804 72.4766C47.8066 71.8247 47.8697 71.0179 47.8697 70.0562ZM51.2607 70.0562C51.2607 68.2181 51.5552 66.7862 52.1442 65.7604C52.7332 64.7238 53.764 64.2056 55.2365 64.2056C56.6986 64.2056 57.7241 64.7238 58.3131 65.7604C58.9021 66.7862 59.1966 68.2181 59.1966 70.0562C59.1966 71.9263 58.9021 73.3795 58.3131 74.4161C57.7241 75.4526 56.6986 75.9709 55.2365 75.9709C53.764 75.9709 52.7332 75.4526 52.1442 74.4161C51.5552 73.3795 51.2607 71.9263 51.2607 70.0562ZM57.7766 70.0562C57.7766 69.1265 57.7135 68.3411 57.5873 67.6999C57.4717 67.048 57.2244 66.5245 56.8458 66.1291C56.4777 65.7336 55.9413 65.536 55.2365 65.536C54.5213 65.536 53.9744 65.7336 53.5957 66.1291C53.2276 66.5245 52.9804 67.048 52.8542 67.6999C52.7385 68.3411 52.6806 69.1265 52.6806 70.0562C52.6806 71.0179 52.7385 71.8247 52.8542 72.4766C52.9804 73.1284 53.2276 73.652 53.5957 74.0474C53.9744 74.4428 54.5213 74.6405 55.2365 74.6405C55.9413 74.6405 56.4777 74.4428 56.8458 74.0474C57.2244 73.652 57.4717 73.1284 57.5873 72.4766C57.7135 71.8247 57.7766 71.0179 57.7766 70.0562ZM67.0462 68.8059C67.3302 68.3037 67.751 67.8869 68.3084 67.5556C68.8764 67.2137 69.5338 67.0427 70.2805 67.0427C71.0484 67.0427 71.7426 67.2298 72.3631 67.6037C72.9942 67.9777 73.4885 68.5067 73.8462 69.1906C74.2038 69.8638 74.3826 70.6492 74.3826 71.5469C74.3826 72.4338 74.2038 73.2246 73.8462 73.9192C73.4885 74.6137 72.9942 75.1534 72.3631 75.5381C71.7426 75.9228 71.0484 76.1151 70.2805 76.1151C69.5442 76.1151 68.8921 75.9496 68.3242 75.6183C67.7667 75.2763 67.3408 74.8542 67.0462 74.352V80.1384H65.6105V67.187H67.0462V68.8059ZM72.9153 71.5469C72.9153 70.8844 72.7839 70.3073 72.5209 69.8157C72.2579 69.3241 71.9004 68.9502 71.4481 68.6937C71.0063 68.4372 70.5172 68.309 69.9808 68.309C69.4549 68.309 68.9658 68.4425 68.5135 68.7097C68.0717 68.9662 67.7141 69.3456 67.4407 69.8478C67.1777 70.3394 67.0462 70.911 67.0462 71.5629C67.0462 72.2254 67.1777 72.8079 67.4407 73.3101C67.7141 73.8017 68.0717 74.1809 68.5135 74.4481C68.9658 74.7046 69.4549 74.8328 69.9808 74.8328C70.5172 74.8328 71.0063 74.7046 71.4481 74.4481C71.9004 74.1809 72.2579 73.8017 72.5209 73.3101C72.7839 72.8079 72.9153 72.2201 72.9153 71.5469ZM86.6696 67.0267C87.3428 67.0267 87.9423 67.1709 88.4681 67.4595C88.994 67.7373 89.4096 68.1594 89.7146 68.7258C90.0195 69.2921 90.1721 69.9813 90.1721 70.7935V75.9709H88.7521V71.0019C88.7521 70.1256 88.5365 69.4578 88.1053 68.9983C87.6845 68.5281 87.1113 68.293 86.3856 68.293C85.6388 68.293 85.0445 68.5387 84.6027 69.0303C84.161 69.5112 83.9401 70.2112 83.9401 71.1301V75.9709H82.5202V71.0019C82.5202 70.1256 82.3045 69.4578 81.8733 68.9983C81.4525 68.5281 80.8793 68.293 80.1536 68.293C79.4068 68.293 78.8125 68.5387 78.3708 69.0303C77.929 69.5112 77.7081 70.2112 77.7081 71.1301V75.9709H76.2724V67.187H77.7081V68.4533C77.9921 67.9937 78.3708 67.6411 78.8441 67.3954C79.3279 67.1496 79.859 67.0267 80.4376 67.0267C81.1633 67.0267 81.805 67.1923 82.3624 67.5236C82.9198 67.8549 83.3354 68.3411 83.6088 68.9822C83.8507 68.3624 84.2504 67.8815 84.8079 67.5396C85.3653 67.1977 85.9859 67.0267 86.6696 67.0267Z" fill="#191D3A"/>
<path d="M122.336 70.0562C122.336 68.2181 122.631 66.7862 123.219 65.7604C123.809 64.7238 124.84 64.2056 126.312 64.2056C127.774 64.2056 128.8 64.7238 129.388 65.7604C129.978 66.7862 130.272 68.2181 130.272 70.0562C130.272 71.9263 129.978 73.3795 129.388 74.4161C128.8 75.4526 127.774 75.9709 126.312 75.9709C124.84 75.9709 123.809 75.4526 123.219 74.4161C122.631 73.3795 122.336 71.9263 122.336 70.0562ZM128.852 70.0562C128.852 69.1265 128.789 68.3411 128.663 67.6999C128.547 67.048 128.3 66.5245 127.921 66.1291C127.553 65.7336 127.017 65.536 126.312 65.536C125.597 65.536 125.05 65.7336 124.671 66.1291C124.303 66.5245 124.056 67.048 123.929 67.6999C123.814 68.3411 123.756 69.1265 123.756 70.0562C123.756 71.0179 123.814 71.8247 123.929 72.4766C124.056 73.1284 124.303 73.652 124.671 74.0474C125.05 74.4428 125.597 74.6405 126.312 74.6405C127.017 74.6405 127.553 74.4428 127.921 74.0474C128.3 73.652 128.547 73.1284 128.663 72.4766C128.789 71.8247 128.852 71.0179 128.852 70.0562ZM139.264 65.52L134.878 75.9709H133.426L137.875 65.6642H131.785V64.4139H139.264V65.52ZM141.551 76.0671C141.276 76.0671 141.046 75.9709 140.856 75.7785C140.667 75.5862 140.572 75.3511 140.572 75.0733C140.572 74.7955 140.667 74.5603 140.856 74.368C141.046 74.1756 141.276 74.0795 141.551 74.0795C141.813 74.0795 142.034 74.1756 142.213 74.368C142.403 74.5603 142.497 74.7955 142.497 75.0733C142.497 75.3511 142.403 75.5862 142.213 75.7785C142.034 75.9709 141.813 76.0671 141.551 76.0671ZM141.551 69.2066C141.276 69.2066 141.046 69.1105 140.856 68.9181C140.667 68.7258 140.572 68.4906 140.572 68.2128C140.572 67.935 140.667 67.6999 140.856 67.5076C141.046 67.3152 141.276 67.219 141.551 67.219C141.813 67.219 142.034 67.3152 142.213 67.5076C142.403 67.6999 142.497 67.935 142.497 68.2128C142.497 68.4906 142.403 68.7258 142.213 68.9181C142.034 69.1105 141.813 69.2066 141.551 69.2066ZM143.868 73.3902V72.2842L149.406 64.4941H151.125V72.1239H152.703V73.3902H151.125V75.9709H149.705V73.3902H143.868ZM149.768 66.0169L145.524 72.1239H149.768V66.0169ZM161.41 65.6482H155.872V69.3028C156.115 68.9609 156.472 68.683 156.945 68.4693C157.418 68.2449 157.929 68.1327 158.475 68.1327C159.349 68.1327 160.059 68.3197 160.605 68.6937C161.153 69.0571 161.542 69.5325 161.773 70.1203C162.015 70.6973 162.136 71.3117 162.136 71.9636C162.136 72.733 161.994 73.4223 161.71 74.0314C161.426 74.6405 160.99 75.1213 160.4 75.474C159.822 75.8266 159.102 76.0029 158.239 76.0029C157.134 76.0029 156.241 75.7144 155.557 75.1374C154.873 74.5603 154.458 73.7909 154.31 72.8292H155.714C155.852 73.4383 156.14 73.9139 156.582 74.2558C157.024 74.5977 157.582 74.7687 158.255 74.7687C159.086 74.7687 159.712 74.5176 160.132 74.0153C160.553 73.5024 160.763 72.8292 160.763 71.9957C160.763 71.1622 160.553 70.521 160.132 70.0722C159.712 69.6127 159.091 69.383 158.27 69.383C157.713 69.383 157.224 69.5219 156.803 69.7997C156.393 70.0669 156.093 70.4356 155.904 70.9057H154.547V64.3659H161.41V65.6482ZM169.923 68.8059C170.207 68.3037 170.627 67.8869 171.185 67.5556C171.753 67.2137 172.41 67.0427 173.157 67.0427C173.924 67.0427 174.618 67.2298 175.24 67.6037C175.871 67.9777 176.365 68.5067 176.723 69.1906C177.08 69.8638 177.259 70.6492 177.259 71.5469C177.259 72.4338 177.08 73.2246 176.723 73.9192C176.365 74.6137 175.871 75.1534 175.24 75.5381C174.618 75.9228 173.924 76.1151 173.157 76.1151C172.421 76.1151 171.769 75.9496 171.201 75.6183C170.643 75.2763 170.217 74.8542 169.923 74.352V80.1384H168.487V67.187H169.923V68.8059ZM175.792 71.5469C175.792 70.8844 175.66 70.3073 175.397 69.8157C175.134 69.3241 174.776 68.9502 174.325 68.6937C173.883 68.4372 173.394 68.309 172.857 68.309C172.331 68.309 171.842 68.4425 171.39 68.7097C170.948 68.9662 170.59 69.3456 170.317 69.8478C170.054 70.3394 169.923 70.911 169.923 71.5629C169.923 72.2254 170.054 72.8079 170.317 73.3101C170.59 73.8017 170.948 74.1809 171.39 74.4481C171.842 74.7046 172.331 74.8328 172.857 74.8328C173.394 74.8328 173.883 74.7046 174.325 74.4481C174.776 74.1809 175.134 73.8017 175.397 73.3101C175.66 72.8079 175.792 72.2201 175.792 71.5469ZM189.546 67.0267C190.219 67.0267 190.819 67.1709 191.344 67.4595C191.871 67.7373 192.286 68.1594 192.591 68.7258C192.896 69.2921 193.048 69.9813 193.048 70.7935V75.9709H191.628V71.0019C191.628 70.1256 191.413 69.4578 190.981 68.9983C190.561 68.5281 189.987 68.293 189.262 68.293C188.515 68.293 187.921 68.5387 187.479 69.0303C187.037 69.5112 186.816 70.2112 186.816 71.1301V75.9709H185.396V71.0019C185.396 70.1256 185.181 69.4578 184.749 68.9983C184.329 68.5281 183.755 68.293 183.03 68.293C182.283 68.293 181.689 68.5387 181.247 69.0303C180.805 69.5112 180.584 70.2112 180.584 71.1301V75.9709H179.149V67.187H180.584V68.4533C180.868 67.9937 181.247 67.6411 181.72 67.3954C182.204 67.1496 182.736 67.0267 183.314 67.0267C184.039 67.0267 184.681 67.1923 185.238 67.5236C185.797 67.8549 186.212 68.3411 186.485 68.9822C186.727 68.3624 187.127 67.8815 187.684 67.5396C188.242 67.1977 188.862 67.0267 189.546 67.0267Z" fill="white"/>
<path d="M225.209 70.0562C225.209 68.2181 225.504 66.7862 226.093 65.7604C226.682 64.7238 227.713 64.2056 229.185 64.2056C230.647 64.2056 231.673 64.7238 232.261 65.7604C232.851 66.7862 233.145 68.2181 233.145 70.0562C233.145 71.9263 232.851 73.3795 232.261 74.4161C231.673 75.4526 230.647 75.9709 229.185 75.9709C227.713 75.9709 226.682 75.4526 226.093 74.4161C225.504 73.3795 225.209 71.9263 225.209 70.0562ZM231.725 70.0562C231.725 69.1265 231.662 68.3411 231.536 67.6999C231.42 67.048 231.173 66.5245 230.794 66.1291C230.426 65.7336 229.89 65.536 229.185 65.536C228.47 65.536 227.923 65.7336 227.544 66.1291C227.176 66.5245 226.929 67.048 226.802 67.6999C226.687 68.3411 226.629 69.1265 226.629 70.0562C226.629 71.0179 226.687 71.8247 226.802 72.4766C226.929 73.1284 227.176 73.652 227.544 74.0474C227.923 74.4428 228.47 74.6405 229.185 74.6405C229.89 74.6405 230.426 74.4428 230.794 74.0474C231.173 73.652 231.42 73.1284 231.536 72.4766C231.662 71.8247 231.725 71.0179 231.725 70.0562ZM237.199 69.944C236.61 69.7088 236.157 69.3669 235.842 68.9181C235.526 68.4693 235.368 67.9243 235.368 67.2831C235.368 66.7061 235.51 66.1879 235.794 65.7283C236.078 65.2582 236.5 64.8895 237.057 64.6223C237.625 64.3445 238.309 64.2056 239.108 64.2056C239.907 64.2056 240.586 64.3445 241.143 64.6223C241.711 64.8895 242.137 65.2582 242.421 65.7283C242.716 66.1879 242.863 66.7061 242.863 67.2831C242.863 67.903 242.7 68.448 242.374 68.9181C242.048 69.3776 241.6 69.7196 241.032 69.944C241.685 70.147 242.2 70.505 242.579 71.0179C242.968 71.5201 243.162 72.1292 243.162 72.8452C243.162 73.5398 242.995 74.1489 242.658 74.6725C242.321 75.1855 241.843 75.5862 241.222 75.8747C240.612 76.1522 239.907 76.2915 239.108 76.2915C238.309 76.2915 237.604 76.1522 236.994 75.8747C236.394 75.5862 235.927 75.1855 235.589 74.6725C235.253 74.1489 235.084 73.5398 235.084 72.8452C235.084 72.1292 235.274 71.5148 235.652 71.0019C236.031 70.489 236.547 70.1363 237.199 69.944ZM241.474 67.4595C241.474 66.8076 241.264 66.3054 240.843 65.9527C240.423 65.6001 239.844 65.4238 239.108 65.4238C238.382 65.4238 237.809 65.6001 237.388 65.9527C236.968 66.3054 236.757 66.813 236.757 67.4755C236.757 68.0739 236.973 68.5547 237.404 68.9181C237.845 69.2815 238.413 69.4631 239.108 69.4631C239.813 69.4631 240.381 69.2815 240.812 68.9181C241.253 68.5441 241.474 68.0578 241.474 67.4595ZM239.108 70.5851C238.33 70.5851 237.694 70.7722 237.199 71.1461C236.705 71.5095 236.457 72.0598 236.457 72.7971C236.457 73.4811 236.694 74.0314 237.167 74.4481C237.651 74.8649 238.298 75.0733 239.108 75.0733C239.918 75.0733 240.559 74.8649 241.032 74.4481C241.506 74.0314 241.742 73.4811 241.742 72.7971C241.742 72.0811 241.501 71.5361 241.017 71.1622C240.534 70.7775 239.897 70.5851 239.108 70.5851ZM245.764 76.0671C245.491 76.0671 245.259 75.9709 245.069 75.7785C244.88 75.5862 244.785 75.3511 244.785 75.0733C244.785 74.7955 244.88 74.5603 245.069 74.368C245.259 74.1756 245.491 74.0795 245.764 74.0795C246.027 74.0795 246.248 74.1756 246.426 74.368C246.616 74.5603 246.71 74.7955 246.71 75.0733C246.71 75.3511 246.616 75.5862 246.426 75.7785C246.248 75.9709 246.027 76.0671 245.764 76.0671ZM245.764 69.2066C245.491 69.2066 245.259 69.1105 245.069 68.9181C244.88 68.7258 244.785 68.4906 244.785 68.2128C244.785 67.935 244.88 67.6999 245.069 67.5076C245.259 67.3152 245.491 67.219 245.764 67.219C246.027 67.219 246.248 67.3152 246.426 67.5076C246.616 67.6999 246.71 67.935 246.71 68.2128C246.71 68.4906 246.616 68.7258 246.426 68.9181C246.248 69.1105 246.027 69.2066 245.764 69.2066ZM248.428 70.0562C248.428 68.2181 248.723 66.7862 249.312 65.7604C249.901 64.7238 250.932 64.2056 252.404 64.2056C253.866 64.2056 254.892 64.7238 255.48 65.7604C256.07 66.7862 256.364 68.2181 256.364 70.0562C256.364 71.9263 256.07 73.3795 255.48 74.4161C254.892 75.4526 253.866 75.9709 252.404 75.9709C250.932 75.9709 249.901 75.4526 249.312 74.4161C248.723 73.3795 248.428 71.9263 248.428 70.0562ZM254.944 70.0562C254.944 69.1265 254.881 68.3411 254.755 67.6999C254.639 67.048 254.392 66.5245 254.013 66.1291C253.645 65.7336 253.109 65.536 252.404 65.536C251.689 65.536 251.142 65.7336 250.763 66.1291C250.395 66.5245 250.148 67.048 250.022 67.6999C249.906 68.3411 249.848 69.1265 249.848 70.0562C249.848 71.0179 249.906 71.8247 250.022 72.4766C250.148 73.1284 250.395 73.652 250.763 74.0474C251.142 74.4428 251.689 74.6405 252.404 74.6405C253.109 74.6405 253.645 74.4428 254.013 74.0474C254.392 73.652 254.639 73.1284 254.755 72.4766C254.881 71.8247 254.944 71.0179 254.944 70.0562ZM258.335 70.0562C258.335 68.2181 258.63 66.7862 259.219 65.7604C259.808 64.7238 260.839 64.2056 262.311 64.2056C263.773 64.2056 264.799 64.7238 265.387 65.7604C265.977 66.7862 266.271 68.2181 266.271 70.0562C266.271 71.9263 265.977 73.3795 265.387 74.4161C264.799 75.4526 263.773 75.9709 262.311 75.9709C260.839 75.9709 259.808 75.4526 259.219 74.4161C258.63 73.3795 258.335 71.9263 258.335 70.0562ZM264.851 70.0562C264.851 69.1265 264.788 68.3411 264.662 67.6999C264.546 67.048 264.299 66.5245 263.92 66.1291C263.552 65.7336 263.016 65.536 262.311 65.536C261.596 65.536 261.049 65.7336 260.67 66.1291C260.302 66.5245 260.055 67.048 259.929 67.6999C259.813 68.3411 259.755 69.1265 259.755 70.0562C259.755 71.0179 259.813 71.8247 259.929 72.4766C260.055 73.1284 260.302 73.652 260.67 74.0474C261.049 74.4428 261.596 74.6405 262.311 74.6405C263.016 74.6405 263.552 74.4428 263.92 74.0474C264.299 73.652 264.546 73.1284 264.662 72.4766C264.788 71.8247 264.851 71.0179 264.851 70.0562ZM274.121 68.8059C274.405 68.3037 274.825 67.8869 275.383 67.5556C275.951 67.2137 276.608 67.0427 277.355 67.0427C278.123 67.0427 278.817 67.2298 279.438 67.6037C280.069 67.9777 280.563 68.5067 280.921 69.1906C281.278 69.8638 281.457 70.6492 281.457 71.5469C281.457 72.4338 281.278 73.2246 280.921 73.9192C280.563 74.6137 280.069 75.1534 279.438 75.5381C278.817 75.9228 278.123 76.1151 277.355 76.1151C276.619 76.1151 275.967 75.9496 275.399 75.6183C274.841 75.2763 274.415 74.8542 274.121 74.352V80.1384H272.685V67.187H274.121V68.8059ZM279.99 71.5469C279.99 70.8844 279.858 70.3073 279.596 69.8157C279.333 69.3241 278.975 68.9502 278.523 68.6937C278.081 68.4372 277.592 68.309 277.056 68.309C276.529 68.309 276.04 68.4425 275.588 68.7097C275.147 68.9662 274.789 69.3456 274.516 69.8478C274.252 70.3394 274.121 70.911 274.121 71.5629C274.121 72.2254 274.252 72.8079 274.516 73.3101C274.789 73.8017 275.147 74.1809 275.588 74.4481C276.04 74.7046 276.529 74.8328 277.056 74.8328C277.592 74.8328 278.081 74.7046 278.523 74.4481C278.975 74.1809 279.333 73.8017 279.596 73.3101C279.858 72.8079 279.99 72.2201 279.99 71.5469ZM293.744 67.0267C294.417 67.0267 295.017 67.1709 295.543 67.4595C296.069 67.7373 296.484 68.1594 296.789 68.7258C297.095 69.2921 297.246 69.9813 297.246 70.7935V75.9709H295.827V71.0019C295.827 70.1256 295.612 69.4578 295.18 68.9983C294.76 68.5281 294.186 68.293 293.46 68.293C292.714 68.293 292.119 68.5387 291.677 69.0303C291.235 69.5112 291.014 70.2112 291.014 71.1301V75.9709H289.595V71.0019C289.595 70.1256 289.38 69.4578 288.948 68.9983C288.528 68.5281 287.954 68.293 287.228 68.293C286.482 68.293 285.887 68.5387 285.445 69.0303C285.003 69.5112 284.783 70.2112 284.783 71.1301V75.9709H283.347V67.187H284.783V68.4533C285.066 67.9937 285.445 67.6411 285.918 67.3954C286.403 67.1496 286.934 67.0267 287.512 67.0267C288.238 67.0267 288.88 67.1923 289.437 67.5236C289.995 67.8549 290.41 68.3411 290.683 68.9822C290.926 68.3624 291.325 67.8815 291.882 67.5396C292.44 67.1977 293.061 67.0267 293.744 67.0267Z" fill="#191D3A"/>
<path d="M328.754 70.0564C328.754 68.2184 329.049 66.7865 329.637 65.7606C330.227 64.724 331.258 64.2058 332.73 64.2058C334.192 64.2058 335.218 64.724 335.806 65.7606C336.396 66.7865 336.69 68.2184 336.69 70.0564C336.69 71.9265 336.396 73.3797 335.806 74.4163C335.218 75.4529 334.192 75.9711 332.73 75.9711C331.258 75.9711 330.227 75.4529 329.637 74.4163C329.049 73.3797 328.754 71.9265 328.754 70.0564ZM335.27 70.0564C335.27 69.1267 335.207 68.3413 335.081 67.7001C334.965 67.0483 334.718 66.5247 334.339 66.1293C333.971 65.7339 333.435 65.5362 332.73 65.5362C332.015 65.5362 331.468 65.7339 331.089 66.1293C330.721 66.5247 330.474 67.0483 330.347 67.7001C330.232 68.3413 330.174 69.1267 330.174 70.0564C330.174 71.0181 330.232 71.8249 330.347 72.4768C330.474 73.1287 330.721 73.6522 331.089 74.0476C331.468 74.443 332.015 74.6407 332.73 74.6407C333.435 74.6407 333.971 74.443 334.339 74.0476C334.718 73.6522 334.965 73.1287 335.081 72.4768C335.207 71.8249 335.27 71.0181 335.27 70.0564ZM340.507 72.8615C340.612 73.4706 340.854 73.9407 341.233 74.272C341.622 74.6033 342.143 74.7689 342.795 74.7689C343.667 74.7689 344.309 74.4216 344.719 73.727C345.14 73.0325 345.34 71.8624 345.319 70.2167C345.098 70.6976 344.73 71.0769 344.215 71.3547C343.699 71.6219 343.126 71.7555 342.495 71.7555C341.79 71.7555 341.159 71.6112 340.602 71.3227C340.054 71.0235 339.623 70.5907 339.308 70.0243C338.992 69.458 338.835 68.7741 338.835 67.9726C338.835 66.8293 339.161 65.9102 339.813 65.2156C340.465 64.5104 341.39 64.1577 342.589 64.1577C344.062 64.1577 345.093 64.6439 345.682 65.6164C346.281 66.5888 346.581 68.0367 346.581 69.9602C346.581 71.3067 346.46 72.418 346.218 73.2943C345.987 74.1706 345.587 74.8384 345.019 75.2979C344.462 75.7574 343.694 75.9871 342.716 75.9871C341.643 75.9871 340.807 75.6933 340.207 75.1055C339.608 74.5178 339.265 73.7698 339.182 72.8615H340.507ZM342.731 70.5212C343.437 70.5212 344.014 70.3021 344.467 69.864C344.92 69.4152 345.145 68.8114 345.145 68.0528C345.145 67.2513 344.924 66.6049 344.483 66.1133C344.041 65.6217 343.421 65.3759 342.621 65.3759C341.884 65.3759 341.296 65.611 340.854 66.0812C340.423 66.5513 340.207 67.1712 340.207 67.9406C340.207 68.7207 340.423 69.3458 340.854 69.816C341.285 70.2861 341.911 70.5212 342.731 70.5212ZM349.293 76.0673C349.02 76.0673 348.788 75.9711 348.599 75.7788C348.409 75.5864 348.315 75.3513 348.315 75.0735C348.315 74.7957 348.409 74.5606 348.599 74.3682C348.788 74.1759 349.02 74.0797 349.293 74.0797C349.556 74.0797 349.777 74.1759 349.955 74.3682C350.145 74.5606 350.239 74.7957 350.239 75.0735C350.239 75.3513 350.145 75.5864 349.955 75.7788C349.777 75.9711 349.556 76.0673 349.293 76.0673ZM349.293 69.2069C349.02 69.2069 348.788 69.1107 348.599 68.9183C348.409 68.726 348.315 68.4909 348.315 68.2131C348.315 67.9353 348.409 67.7001 348.599 67.5078C348.788 67.3154 349.02 67.2193 349.293 67.2193C349.556 67.2193 349.777 67.3154 349.955 67.5078C350.145 67.7001 350.239 67.9353 350.239 68.2131C350.239 68.4909 350.145 68.726 349.955 68.9183C349.777 69.1107 349.556 69.2069 349.293 69.2069ZM351.958 70.0564C351.958 68.2184 352.252 66.7865 352.842 65.7606C353.43 64.724 354.461 64.2058 355.934 64.2058C357.395 64.2058 358.421 64.724 359.011 65.7606C359.599 66.7865 359.893 68.2184 359.893 70.0564C359.893 71.9265 359.599 73.3797 359.011 74.4163C358.421 75.4529 357.395 75.9711 355.934 75.9711C354.461 75.9711 353.43 75.4529 352.842 74.4163C352.252 73.3797 351.958 71.9265 351.958 70.0564ZM358.474 70.0564C358.474 69.1267 358.411 68.3413 358.285 67.7001C358.168 67.0483 357.922 66.5247 357.543 66.1293C357.174 65.7339 356.638 65.5362 355.934 65.5362C355.218 65.5362 354.672 65.7339 354.293 66.1293C353.924 66.5247 353.678 67.0483 353.552 67.7001C353.435 68.3413 353.378 69.1267 353.378 70.0564C353.378 71.0181 353.435 71.8249 353.552 72.4768C353.678 73.1287 353.924 73.6522 354.293 74.0476C354.672 74.443 355.218 74.6407 355.934 74.6407C356.638 74.6407 357.174 74.443 357.543 74.0476C357.922 73.6522 358.168 73.1287 358.285 72.4768C358.411 71.8249 358.474 71.0181 358.474 70.0564ZM361.864 70.0564C361.864 68.2184 362.159 66.7865 362.748 65.7606C363.337 64.724 364.368 64.2058 365.84 64.2058C367.302 64.2058 368.328 64.724 368.917 65.7606C369.506 66.7865 369.8 68.2184 369.8 70.0564C369.8 71.9265 369.506 73.3797 368.917 74.4163C368.328 75.4529 367.302 75.9711 365.84 75.9711C364.368 75.9711 363.337 75.4529 362.748 74.4163C362.159 73.3797 361.864 71.9265 361.864 70.0564ZM368.38 70.0564C368.38 69.1267 368.317 68.3413 368.191 67.7001C368.076 67.0483 367.828 66.5247 367.449 66.1293C367.082 65.7339 366.545 65.5362 365.84 65.5362C365.125 65.5362 364.578 65.7339 364.199 66.1293C363.831 66.5247 363.584 67.0483 363.458 67.7001C363.342 68.3413 363.284 69.1267 363.284 70.0564C363.284 71.0181 363.342 71.8249 363.458 72.4768C363.584 73.1287 363.831 73.6522 364.199 74.0476C364.578 74.443 365.125 74.6407 365.84 74.6407C366.545 74.6407 367.082 74.443 367.449 74.0476C367.828 73.6522 368.076 73.1287 368.191 72.4768C368.317 71.8249 368.38 71.0181 368.38 70.0564ZM377.65 68.8061C377.934 68.3039 378.355 67.8872 378.912 67.5559C379.48 67.2139 380.138 67.0429 380.885 67.0429C381.653 67.0429 382.347 67.23 382.967 67.604C383.598 67.9779 384.092 68.5069 384.45 69.1908C384.808 69.8641 384.987 70.6495 384.987 71.5471C384.987 72.434 384.808 73.2248 384.45 73.9194C384.092 74.614 383.598 75.1536 382.967 75.5383C382.347 75.923 381.653 76.1154 380.885 76.1154C380.148 76.1154 379.496 75.9498 378.928 75.6185C378.371 75.2766 377.945 74.8544 377.65 74.3522V80.1387H376.215V67.1872H377.65V68.8061ZM383.519 71.5471C383.519 70.8846 383.388 70.3076 383.125 69.816C382.862 69.3244 382.505 68.9504 382.052 68.6939C381.61 68.4375 381.121 68.3092 380.585 68.3092C380.059 68.3092 379.57 68.4428 379.118 68.71C378.676 68.9664 378.318 69.3458 378.045 69.848C377.781 70.3396 377.65 70.9112 377.65 71.5631C377.65 72.2256 377.781 72.8081 378.045 73.3103C378.318 73.8019 378.676 74.1812 379.118 74.4484C379.57 74.7048 380.059 74.833 380.585 74.833C381.121 74.833 381.61 74.7048 382.052 74.4484C382.505 74.1812 382.862 73.8019 383.125 73.3103C383.388 72.8081 383.519 72.2203 383.519 71.5471ZM397.273 67.0269C397.947 67.0269 398.546 67.1712 399.072 67.4597C399.598 67.7375 400.013 68.1597 400.318 68.726C400.624 69.2923 400.776 69.9816 400.776 70.7937V75.9711H399.356V71.0021C399.356 70.1258 399.141 69.458 398.709 68.9985C398.289 68.5283 397.715 68.2932 396.989 68.2932C396.243 68.2932 395.648 68.5389 395.206 69.0305C394.765 69.5114 394.544 70.2114 394.544 71.1303V75.9711H393.124V71.0021C393.124 70.1258 392.909 69.458 392.477 68.9985C392.057 68.5283 391.483 68.2932 390.757 68.2932C390.011 68.2932 389.416 68.5389 388.974 69.0305C388.533 69.5114 388.312 70.2114 388.312 71.1303V75.9711H386.876V67.1872H388.312V68.4535C388.596 67.994 388.974 67.6413 389.448 67.3956C389.932 67.1498 390.463 67.0269 391.041 67.0269C391.767 67.0269 392.409 67.1925 392.966 67.5238C393.524 67.8551 393.939 68.3413 394.212 68.9825C394.455 68.3626 394.854 67.8818 395.411 67.5398C395.97 67.1979 396.59 67.0269 397.273 67.0269Z" fill="#191D3A"/>
</g>
<defs>
<clipPath id="clip0_108_492">
<rect width="354" height="92" rx="10" fill="white"/>
</clipPath>
</defs>
</svg>
